<svg xmlns="http://www.w3.org/2000/svg" xmlns:xlink="http://www.w3.org/1999/xlink" viewBox="0 0 369.92 102.52"><defs><style>.cls-1,.cls-17{fill:#2d2a26;}.cls-2{fill:url(#linear-gradient);}.cls-18,.cls-3{fill:#fff;}.cls-4{fill:#ad853a;}.cls-5{fill:url(#linear-gradient-2);}.cls-6{fill:url(#linear-gradient-3);}.cls-7{fill:url(#linear-gradient-4);}.cls-8{fill:url(#linear-gradient-5);}.cls-9{fill:url(#linear-gradient-6);}.cls-10{fill:url(#linear-gradient-7);}.cls-11{fill:url(#linear-gradient-8);}.cls-12{fill:url(#linear-gradient-9);}.cls-13{fill:url(#linear-gradient-10);}.cls-14{fill:url(#linear-gradient-11);}.cls-15{fill:url(#linear-gradient-12);}.cls-16{fill:url(#linear-gradient-13);}.cls-17,.cls-18{fill-rule:evenodd;}.cls-19{fill:none;}.cls-20{fill:#dbdbda;}.cls-21{fill:url(#linear-gradient-14);}.cls-22{fill:#0e8a47;}.cls-23{fill:url(#linear-gradient-15);}.cls-24{fill:#ca1f3c;}.cls-25{fill:#91703d;}</style><linearGradient id="linear-gradient" x1="8.24" y1="89.97" x2="70.75" y2="89.97" gradientUnits="userSpaceOnUse"><stop offset="0" stop-color="#ca1f3c"></stop><stop offset="0.15" stop-color="#cb223f"></stop><stop offset="0.26" stop-color="#cd2c48"></stop><stop offset="0.37" stop-color="#d13d56"></stop><stop offset="0.47" stop-color="#d7556b"></stop><stop offset="0.52" stop-color="#da6277"></stop><stop offset="0.56" stop-color="#d7546a"></stop><stop offset="0.65" stop-color="#d13c56"></stop><stop offset="0.75" stop-color="#cd2c47"></stop><stop offset="0.86" stop-color="#cb223f"></stop><stop offset="1" stop-color="#ca1f3c"></stop></linearGradient><linearGradient id="linear-gradient-2" x1="66.83" y1="58.4" x2="69.93" y2="51.04" gradientUnits="userSpaceOnUse"><stop offset="0" stop-color="#fff"></stop><stop offset="1" stop-color="#ad853a"></stop></linearGradient><linearGradient id="linear-gradient-3" x1="-11561.28" y1="58.4" x2="-11558.19" y2="51.04" gradientTransform="matrix(-1, 0, 0, 1, -11549.2, 0)" xlink:href="#linear-gradient-2"></linearGradient><linearGradient id="linear-gradient-4" x1="39.45" y1="80.5" x2="39.45" y2="59.87" gradientUnits="userSpaceOnUse"><stop offset="0" stop-color="#fefefe"></stop><stop offset="0.17" stop-color="#f9f9f8"></stop><stop offset="0.38" stop-color="#e9e9e9"></stop><stop offset="0.62" stop-color="#d0cfce"></stop><stop offset="0.88" stop-color="#adacaa"></stop><stop offset="1" stop-color="#9b9997"></stop></linearGradient><linearGradient id="linear-gradient-5" x1="66.13" y1="48.69" x2="69.62" y2="41.51" xlink:href="#linear-gradient-4"></linearGradient><linearGradient id="linear-gradient-6" x1="68.52" y1="68.67" x2="72.3" y2="64.26" xlink:href="#linear-gradient-4"></linearGradient><linearGradient id="linear-gradient-7" x1="-6248.37" y1="48.69" x2="-6244.89" y2="41.51" gradientTransform="matrix(-1, 0, 0, 1, -6235.6, 0)" xlink:href="#linear-gradient-4"></linearGradient><linearGradient id="linear-gradient-8" x1="-6245.99" y1="68.67" x2="-6242.2" y2="64.26" gradientTransform="matrix(-1, 0, 0, 1, -6235.6, 0)" xlink:href="#linear-gradient-4"></linearGradient><linearGradient id="linear-gradient-9" x1="16.64" y1="66.16" x2="28.37" y2="54.33" gradientUnits="userSpaceOnUse"><stop offset="0" stop-color="#fff"></stop><stop offset="0.28" stop-color="#e5d8c0"></stop><stop offset="0.63" stop-color="#c7ab78"></stop><stop offset="0.88" stop-color="#b4904b"></stop><stop offset="1" stop-color="#ad853a"></stop></linearGradient><linearGradient id="linear-gradient-10" x1="61.45" y1="67.02" x2="50.69" y2="54.47" xlink:href="#linear-gradient-9"></linearGradient><linearGradient id="linear-gradient-11" x1="-1.57" y1="17.35" x2="13.67" y2="28.23" gradientUnits="userSpaceOnUse"><stop offset="0" stop-color="#fff"></stop><stop offset="0.1" stop-color="#fbf8f4"></stop><stop offset="0.29" stop-color="#efe7d7"></stop><stop offset="0.53" stop-color="#dbcaa9"></stop><stop offset="0.81" stop-color="#c0a269"></stop><stop offset="1" stop-color="#ad853a"></stop></linearGradient><linearGradient id="linear-gradient-12" x1="58.22" y1="13.35" x2="51.01" y2="26.99" gradientUnits="userSpaceOnUse"><stop offset="0" stop-color="#fff"></stop><stop offset="0.09" stop-color="#f2ece0"></stop><stop offset="0.26" stop-color="#ddcdae"></stop><stop offset="0.42" stop-color="#ccb384"></stop><stop offset="0.58" stop-color="#be9f64"></stop><stop offset="0.73" stop-color="#b5914d"></stop><stop offset="0.88" stop-color="#af883f"></stop><stop offset="1" stop-color="#ad853a"></stop></linearGradient><linearGradient id="linear-gradient-13" x1="34.69" y1="6.93" x2="33.94" y2="3.5" gradientUnits="userSpaceOnUse"><stop offset="0" stop-color="#fefefe"></stop><stop offset="1" stop-color="#2d2a26"></stop></linearGradient><linearGradient id="linear-gradient-14" x1="26.99" y1="38.49" x2="51.74" y2="38.49" gradientUnits="userSpaceOnUse"><stop offset="0.01" stop-color="#dbdbda"></stop><stop offset="0.07" stop-color="#e6e6e5"></stop><stop offset="0.18" stop-color="#f4f4f3"></stop><stop offset="0.31" stop-color="#fcfcfc"></stop><stop offset="0.54" stop-color="#fefefe"></stop><stop offset="0.67" stop-color="#fafafa"></stop><stop offset="0.79" stop-color="#efefef"></stop><stop offset="0.91" stop-color="#dddcdc"></stop><stop offset="0.97" stop-color="#d0cfce"></stop></linearGradient><linearGradient id="linear-gradient-15" x1="41.78" y1="38.59" x2="33.86" y2="43.53" gradientUnits="userSpaceOnUse"><stop offset="0" stop-color="#fefefe"></stop><stop offset="0.63" stop-color="#d0cfce"></stop></linearGradient></defs><title>Asset 2</title><g id="Layer_2" data-name="Layer 2"><g id="Dimensions"><path class="cls-1" d="M64.72,77.54l-.1.07c-7.12,4.31-15.25,7.31-23.75,7.54-.4.32-1.37,1.06-1.37,1.06s-1-.74-1.38-1.06c-8.5-.23-16.62-3.23-23.74-7.54l-.11-.07L6.79,82.2v9.91a63.51,63.51,0,0,0,31.33,9.27c.37.37,1.38,1.14,1.38,1.14s1-.77,1.37-1.14a63.55,63.55,0,0,0,31.34-9.27V82.2Z"></path><path class="cls-2" d="M65,79.19c-7.11,4.09-15.66,7.22-23.93,7.47l-1.58,1.2-1.59-1.2c-8.27-.25-16.82-3.38-23.93-7.47L8.24,83.11v8.26a63.44,63.44,0,0,0,29.88,8.4h.18l1.18,1h0c.38-.33,1.18-1,1.18-1h.18a63.44,63.44,0,0,0,29.88-8.4V83.11Z"></path><path class="cls-3" d="M28.91,4.49c-1.87,1-2,2.31-1.56,3.15A13.61,13.61,0,0,0,29.23,7a6.89,6.89,0,0,1,3.89,1.43,6.07,6.07,0,0,0,.23-1.67,5.65,5.65,0,0,0-2.07-4.45l-.43.25C29.25,3.53,29.44,4.2,28.91,4.49Z"></path><path class="cls-4" d="M77.6,44.57c0-.46-.11-.92-.17-1.38a81.85,81.85,0,0,1-.23-11.4,18.7,18.7,0,0,0-2.24-10C73.39,19,70.59,15.42,67.19,15c-3.12-.42-5.18,2.34-8.07,3.1-3.18.84-5,.76-8-1.42-1.23-1.18-5.5-10.12-6.69-12A8.45,8.45,0,0,0,38.93.8c-2.71-.63-7.55.48-8.58,1.8-.7.9-1.09.76-1.09,1.39-.05,1.08,2.15,3.35,4,4.57-1.38.11.72,3.26.4,4s-.28,4.8-4.87,5.67a20.68,20.68,0,0,1-9-.21c-2.89-.76-5.19-3.38-8.3-3-3.41.46-6,3.94-7.54,6.71a18.6,18.6,0,0,0-2.24,10,81.86,81.86,0,0,1-.24,11.4c0,.46-.11.92-.16,1.38,0-.15,15.92-8.46,16.41-8.94.72-.71,1-1.18,1.87-2l.06,21.44s2.53-3.31,3.21-2.62c.41.41-1.29,11.63-2.71,16.89.34,0,2.26-1.12,2.52-1s.17,2.82.29,3.06c.19-.31.86-1.54,1.39-1.39s.58,1.56.58,2c.45-1,.85-2.36,1.35-3.34s1.5-2.76,2.17-3.8c.53-.82,2.78-3.21,4.09-3.63,1.7-.53,6.09-.07,6.85,2.21h.3c1.24-3.11,5.55-3.23,7.73-1.53a30.66,30.66,0,0,1,4.39,5.56c.49,1,1.87,3.56,2.33,4.59,0-.43,0-1.9.48-2s1.21,1.08,1.4,1.39c.12-.24,0-2.9.29-3.06s2.18,1,2.52,1c-1.47-4.62-2.52-13.87-2.56-14.52a41.58,41.58,0,0,1,0-6c.14,2.74.45,3.36,3,6.24,0-.71.24-19.49.07-21.44.82.83,1,1.44,1.87,2C63.82,37.44,77.64,44.42,77.6,44.57Z"></path><path class="cls-5" d="M59.47,50.84a.62.62,0,0,1,.14-.19c.31.29.62.58.91.89A33.63,33.63,0,0,1,63.73,56a27.69,27.69,0,0,0,4,4.14,106.72,106.72,0,0,0,9.62,7c.4-2.2-.13-6.63-.1-8.87,0-2,0-3.4-1.78-4.64-2.29-1.6-5-2.65-7.4-4C66,48.35,64,46.72,61.87,45.44a4.56,4.56,0,0,1-2.42-3.28A47.48,47.48,0,0,0,59.47,50.84Z"></path><path class="cls-6" d="M19.44,50.84a.62.62,0,0,0-.14-.19c-.31.29-.62.58-.92.89A35.48,35.48,0,0,0,15.18,56a27.28,27.28,0,0,1-4,4.14,107.49,107.49,0,0,1-9.6,7c-.41-2.2.11-6.63.08-8.87,0-2,0-3.4,1.79-4.64,2.29-1.6,5-2.65,7.39-4C13,48.35,14.92,46.72,17,45.44a4.63,4.63,0,0,0,2.43-3.28A50.32,50.32,0,0,1,19.44,50.84Z"></path><path class="cls-3" d="M47.68,61.76c-1.61-1.6-5.59-2-8.23,1.27-2.63-3.27-6.61-2.87-8.22-1.27-.3,1.62-4.6,15.81-5.17,17.3,2.18.63,2.12.29,3.56-.11.28,4,2.73,1.63,3.28,1.09,1.9,3.44,3.67,1.32,4.65-.23,0,1.26.54,1.89,1.9,2.87,1.36-1,1.91-1.61,1.91-2.87,1,1.55,2.75,3.67,4.65.23.54.54,3,2.93,3.28-1.09,1.43.4,1.37.74,3.56.11C52.27,77.57,48,63.38,47.68,61.76Z"></path><path class="cls-3" d="M59.47,43.28C61,47.64,74.76,53.64,77.53,55.35c0-2.83-.28-4.67-.25-6.92,0-2,0-3.4-1.78-4.64-2.29-1.6-5-2.65-7.4-4C66,38.53,64,36.91,61.87,35.63a4.57,4.57,0,0,1-2.42-3.29A102,102,0,0,0,59.47,43.28Z"></path><path class="cls-3" d="M59.47,58.53c0,2,1.42,3.6,3,4.87,0,1.18.7,4.16,3.15,5.12,0,1.67,1.4,4,3.9,5.18,0,2.13,2.61,4,4,4.29-1,6.75,3.09,8.78,4.06,9.39,0-2.84-.28-14.51-.25-16.75,0-2,0-3.35-1.78-4.64C68.43,60.76,62,53.38,59.3,50.19A51.4,51.4,0,0,0,59.47,58.53Z"></path><path class="cls-3" d="M19.44,43.28C18,47.64,4.14,53.64,1.38,55.35c0-2.83.27-4.67.24-6.92,0-2,0-3.4,1.79-4.64,2.29-1.6,5-2.65,7.39-4C13,38.53,14.92,36.91,17,35.63a4.64,4.64,0,0,0,2.43-3.29A106.89,106.89,0,0,1,19.44,43.28Z"></path><path class="cls-3" d="M19.44,58.53c0,2-1.43,3.6-3,4.87,0,1.18-.7,4.16-3.16,5.12,0,1.67-1.4,4-3.89,5.18,0,2.13-2.61,4-4,4.29,1,6.75-3.09,8.78-4.06,9.39,0-2.84.27-14.51.24-16.75,0-2,.06-3.35,1.79-4.64,7.06-5.23,13.49-12.61,16.2-15.8A52.64,52.64,0,0,1,19.44,58.53Z"></path><path class="cls-7" d="M47.68,61.76c-1.61-1.6-5.59-2-8.23,1.27-2.63-3.27-6.61-2.87-8.22-1.27-.3,1.62-4.6,15.81-5.17,17.3,2.18.63,2.12.29,3.56-.11.28,4,2.73,1.63,3.28,1.09,1.9,3.44,3.67,1.32,4.65-.23,0,1.26.54,1.89,1.9,2.87,1.36-1,1.91-1.61,1.91-2.87,1,1.55,2.75,3.67,4.65.23.54.54,3,2.93,3.28-1.09,1.43.4,1.37.74,3.56.11C52.27,77.57,48,63.38,47.68,61.76Z"></path><path class="cls-8" d="M59.47,43.28C61,47.64,74.76,53.64,77.53,55.35c0-2.83-.28-4.67-.25-6.92,0-2,0-3.4-1.78-4.64-2.29-1.6-5-2.65-7.4-4C66,38.53,64,36.91,61.87,35.63a4.57,4.57,0,0,1-2.42-3.29A102,102,0,0,0,59.47,43.28Z"></path><path class="cls-9" d="M59.47,58.53c0,2,1.42,3.6,3,4.87,0,1.18.7,4.16,3.15,5.12,0,1.67,1.4,4,3.9,5.18,0,2.12,2.61,4,4,4.29-1,6.75,3.09,8.78,4.06,9.39,0-2.84-.28-14.51-.25-16.75,0-2,0-3.35-1.78-4.64C68.43,60.76,62,53.38,59.3,50.19A51.4,51.4,0,0,0,59.47,58.53Z"></path><path class="cls-10" d="M19.44,43.28C18,47.64,4.14,53.64,1.38,55.35c0-2.83.27-4.67.24-6.92,0-2,0-3.4,1.79-4.64,2.29-1.6,5-2.65,7.39-4C13,38.53,14.92,36.91,17,35.63a4.64,4.64,0,0,0,2.43-3.29A106.89,106.89,0,0,1,19.44,43.28Z"></path><path class="cls-11" d="M19.44,58.53c0,2-1.43,3.6-3,4.87,0,1.18-.7,4.16-3.16,5.12,0,1.67-1.4,4-3.89,5.18,0,2.12-2.61,4-4,4.29,1,6.75-3.09,8.78-4.06,9.39,0-2.84.27-14.51.24-16.75,0-2,0-3.38,1.79-4.64C13.17,59,16.9,53.38,19.61,50.19A52.64,52.64,0,0,1,19.44,58.53Z"></path><path class="cls-12" d="M23,71.56c0-.65.31-2.44-.42-3-.45-.34-1.62.65-2.57,1.22,1.68-5.22,5.61-21,5-25.64A76.83,76.83,0,0,1,35.3,50.41c3,2.11,3.27,8.33,1.34,7.58C32.46,56.37,27,62,25.1,71.21,24.62,70.07,24.24,69.19,23,71.56Z"></path><path class="cls-13" d="M55.93,71.56c0-.65-.31-2.44.42-3,.45-.34,1.62.65,2.56,1.22-1.67-5.22-5.6-21-5-25.64A78.14,78.14,0,0,0,43.6,50.41c-3,2.11-3.26,8.33-1.33,7.58C46.45,56.37,52,62,53.8,71.21,54.29,70.07,54.67,69.19,55.93,71.56Z"></path><path class="cls-14" d="M31.28,17.88c-9.35,6.74-18-3.23-21-.4-1.79,1.7-7.11,7.59-7.11,10.15s.31,14.74-.56,15.61c2.54,0,15.34-8,16.07-8.76C21.17,32,22,33.27,25.2,33.28c1.15-.81,2.51-1.38,3.8-2.12C33.71,28.26,31.4,22.56,31.28,17.88Z"></path><path class="cls-15" d="M75.59,27.15c-.85-2.46-6.37-9.93-8.77-9.93-3,0-7.89,4.89-13.64,2.6C46.24,17.06,47.16,6.68,39.36,3A35.11,35.11,0,0,1,43.69,4.7c-3.76-6.74-12.56-4-14.44-1C29,4.84,31.12,7,32.94,8.39c1.66,2.58,1.87,2.78.5,7.28s9.06,3,12,6.51c3.13,3.79,6.7,6.75,11.5,7.87a2.11,2.11,0,0,1,.45.1c1,2.57,8.4,9.71,19.12,13.19C74.91,41.35,76.43,29.6,75.59,27.15Z"></path><path class="cls-3" d="M14.53,82a1.16,1.16,0,0,0,1.16.48,2.57,2.57,0,0,1,.62,0c.2,0,.4.71.67.77s1,0,1.25,0c.47.06.85.57,1.33.59a.89.89,0,0,0,.83-.73c.12-.49-.07-2.09.39-2.47a6.85,6.85,0,0,0,1.1.75l1.18.47c.11,0-1.34-2.37-1.39-2.86-.17-1.65,1.28-3.8,1.71-4.74.19-.43.67-2.08.85-2.54s.35-1.58-.09-1.28c-1.64,1.12-1.2-1.62-1.74-1.51-1.24.26-1.55,2.3-1.85,3.3-.23.8-2,5.06-2.33,5.15-.3-.17-.86,0-1.29.73-.48-.56-1-1.37-1.76-1.31-1,.09-.59,1.55-.5,2.15.06.41-.36,1.93-.31,2.32,0,.17.08.45.13.63Z"></path><path class="cls-3" d="M64.53,82a1.88,1.88,0,0,1-1.48.67,2,2,0,0,0-.85.39c-.19.19-.49.15-.76.21s-.47.09-.73.12c-.47.06-.86.5-1.34.52a.93.93,0,0,1-.85-.75c-.12-.49-.4-2.16-.7-2s-1.4.6-2,.83c-.11,0,1.28-2.45,1.45-2.91a1.6,1.6,0,0,0-.07-1.51c-.05-.12-1.07-2.08-1.49-3-.19-.43-.82-2.29-1-2.75s-.35-1.58.08-1.28C56.41,71.58,56,68.84,56.51,69c1.24.26,1.55,2.3,1.84,3.3.23.8.7,1.65,1,2.43a9.58,9.58,0,0,1,1,3.18,1,1,0,0,1,.5-.34c.55,0,.85-.11,1,.64.44-.72,1-1.4,1.77-1.33,1,.09.69,1.54.59,2.14a1.72,1.72,0,0,0,.14,1C64.92,81.44,64.53,82,64.53,82Z"></path><path class="cls-16" d="M35.65,4.09a1.59,1.59,0,0,1-3.16,0,1.59,1.59,0,0,1,3.16,0Z"></path><path class="cls-1" d="M29.41,5.48l.15,0h0a.53.53,0,0,0-1,0,.47.47,0,0,0,.43.42.26.26,0,0,1,0-.11C28.93,5.62,29.14,5.48,29.41,5.48Z"></path><path class="cls-17" d="M32.79,4.39c.44,1.56,2.85.74,2.14-1a10.37,10.37,0,0,1,2.43-.51c-2-.31-4.32-.56-5.76.11-.71.32-.51.75-.41.93.12-.38.75-.4,1.2-.25a1.65,1.65,0,1,0,3.23.2C35.36,5.82,32.88,5.82,32.79,4.39Z"></path><path class="cls-18" d="M34.7,3.71a1.08,1.08,0,0,0-1.23,0,.62.62,0,0,1,1.23,0Z"></path><path class="cls-1" d="M78,56.24c.37.13.7.25,1,.36-1-1.56-1-4.08-1-4.68v-6l1,.35c-1-1.55-1-4.08-1-4.67v-14C78,23.71,72,14.33,67,14.2c-3.56-.09-7.73,4.91-12.84,3.62-1.64-.43-2.94-2.19-4-4.36-1.91-3.89-3.73-9.08-8.37-12.09-5.13-3.33-11,.39-11.71,1s-1.5,2.13-2,2.38a3.21,3.21,0,0,0-.78,5.33,2,2,0,0,1,0-1.3,6.21,6.21,0,0,0,2.95,0,10,10,0,0,1,2,2.18c.64,1.22.65,1.41.65,1.89A5.1,5.1,0,0,1,30.52,17c-1.87,1.33-6.27,2.08-11.77.19-3-1-4.2-3.09-6.86-3C6.88,14.33,1,23.71,1,27.59v14c0,.59.08,3.12-.95,4.67l1-.35v6C1,52.52,1,55,0,56.6c.26-.11.58-.23,1-.36V64c0,.59.08,3.11-.95,4.67l1-.34V83.82a11.72,11.72,0,0,1-.37,3.37c-.13.47.18,1,.67.83,2-.8,4.92-2.37,4.92-6.72V78.84a5.87,5.87,0,0,0,3.72-4.47,6.46,6.46,0,0,0,3.85-5.07,6.41,6.41,0,0,0,3.35-5.92,6.13,6.13,0,0,0,2.5-3.4,35.33,35.33,0,0,0,.23-4.15,7.74,7.74,0,0,0,2.25-2.44,86,86,0,0,1-2.88,17,5.69,5.69,0,0,0,1.24-.18A31.72,31.72,0,0,1,18,77a1.26,1.26,0,0,0-.38,0c-.28,0-.49.32-.62.66-.39-.59-.88-1.55-2-1.19s-.89,1.77-.7,2.4c.4,1.23-.48,1.63-.32,2.65A1.82,1.82,0,0,0,15,83a1.29,1.29,0,0,0,.73.7c.35.14.31-.16.3-.61l.23-.08a1.16,1.16,0,0,0,.59.72,2.23,2.23,0,0,0,.81.78c.45.21.15-.28.07-.71a1.52,1.52,0,0,0,.49-.22.72.72,0,0,0,.27.33.94.94,0,0,0,.12.09,1.61,1.61,0,0,0,.92,1c.33.11.2-.26.17-.61.45,0,.85-.25,1-1,.26-1-.29-1,.31-2.18.13,0,1.05.39,1.21.43-.87-.34-1.37-2.46-1.53-1.83-.74,1.34-.08,3.87-.93,3.92-2.45.16-.63-2.91-.55-3.67.12-1,0-2.42,1-2.12s1.94,3,2.47,3.87c.08.12,1.3.84,1.36.52a8.45,8.45,0,0,1-1.92-3.47,2.64,2.64,0,0,1,.13-1.8c.23-.56,1.61-3,2.19-4.19a13.25,13.25,0,0,1,.39,1.27c.19-2.54,3-7.37,5.51-10.23-.92,2.89-3,10-3.52,11.92A11.31,11.31,0,0,1,25,79.35a6.06,6.06,0,0,0,3.9.15,1.62,1.62,0,0,0,.37,1.76,2.24,2.24,0,0,0,3.45-.42,2.49,2.49,0,0,0,4.65.66c.48,1.51,1.47,1.71,2,2.28.58-.57,1.57-.77,2-2.28a2.49,2.49,0,0,0,4.65-.66,2.24,2.24,0,0,0,3.45.42A1.63,1.63,0,0,0,50,79.5a6.06,6.06,0,0,0,3.9-.15,11.49,11.49,0,0,1-1.82-3.55c-.56-2-2.59-9-3.51-11.92C51,66.74,53.86,71.57,54,74.11c.08-.36.25-.8.4-1.27.58,1.19,2,3.63,2.18,4.19a2.58,2.58,0,0,1,.14,1.8A7.78,7.78,0,0,1,55,82.29c.06.32,1.08-.25,1.15-.37.55-.86,1.69-3.74,2.54-4s.85,1.14,1,2.12c.09.76,1.91,3.83-.54,3.67-.85,0-.19-2.58-.94-3.92-.14-.63-.63,1.58-1.51,1.92.16,0,1-.51,1.16-.53.61,1.23.09,1.14.34,2.19.18.73.58,1,1,1,0,.35-.15.72.18.61a1.59,1.59,0,0,0,.91-1,.6.6,0,0,0,.13-.09.79.79,0,0,0,.27-.33,1.52,1.52,0,0,0,.49.22c-.08.43-.38.92.07.71a2.11,2.11,0,0,0,.8-.78,1.17,1.17,0,0,0,.6-.72l.22.08c0,.45-.05.75.31.61a1.34,1.34,0,0,0,.73-.69,1.87,1.87,0,0,0,1.05-1.44c.16-1-.72-1.42-.32-2.65.19-.63.44-2-.71-2.4s-1.62.6-2,1.19c-.14-.34-.34-.62-.63-.66a1.25,1.25,0,0,0-.38,0,32.85,32.85,0,0,1-2.41-6.77,5.77,5.77,0,0,0,1.25.18,86,86,0,0,1-2.88-17,7.86,7.86,0,0,0,2.23,2.43A37.26,37.26,0,0,0,59.31,60a6.08,6.08,0,0,0,2.5,3.4,6.41,6.41,0,0,0,3.35,5.92A6.48,6.48,0,0,0,69,74.37a5.84,5.84,0,0,0,3.73,4.47V81.3c0,4.3,2.85,5.89,4.85,6.69.51.21.93-.18.81-.56A11.31,11.31,0,0,1,78,83.82V68.29c.37.14.7.23,1,.33-1-1.56-1-4.08-1-4.67ZM30.58,8.07h0a6.12,6.12,0,0,1-2.37.19c.39-.21.66-.33,1.42-.81a5.22,5.22,0,0,1,1.94.9C31.08,8.14,31,8,30.58,8.07ZM4.86,70.57v4.37c0,.55-.05,2.16-.06,4h0v2.93c0,1.84-1.76,3.48-3.06,4.05a4.85,4.85,0,0,0,.52-2.56V67.7a7.5,7.5,0,0,0,2.37-1.77l.26-.09C4.87,68.29,4.86,70.19,4.86,70.57Zm0-13.41c0,.72-.06,4.4-.06,4.85,0,1.91-1.76,3.48-3.06,4.05a4.82,4.82,0,0,0,.52-2.56V55.67a7.54,7.54,0,0,0,2.05-1.43L5,54C4.89,55,4.86,56.37,4.86,57.16ZM1.74,54a4.81,4.81,0,0,0,.52-2.55V45.34a7.54,7.54,0,0,0,2.05-1.43l.61-.23c0,.5-.06,1-.06,1.67v3.78A5.12,5.12,0,0,1,1.74,54Zm4.4-10.87a7.8,7.8,0,0,0,2.25-1.62l.44-.16c0,.48-.06,1-.06,1.73v3.83a5.11,5.11,0,0,1-2.94,4.81,7.85,7.85,0,0,0,.34-2.34V45.65C6.17,44.81,6.13,44,6.14,43.16ZM8.77,68.32v3.83a5.14,5.14,0,0,1-2.85,4.77c.25-.32.25-1.09.25-2.43V73.1h0V70.86c0-.42,0-2.69,0-5.52a6.63,6.63,0,0,0,2.68-2C8.78,65.2,8.77,67.65,8.77,68.32Zm0-13.41v3.83a5.28,5.28,0,0,1-2.88,4.83,7.71,7.71,0,0,0,.28-2.14v-.08h0V59.7h0V57.46c0-.93,0-2.69,0-4a7.81,7.81,0,0,0,2.25-1.61l.44-.17C8.79,52.8,8.77,54.23,8.77,54.91Zm1-5.52a7.57,7.57,0,0,0,.29-2.18V40.82A7.44,7.44,0,0,0,11.38,40a9,9,0,0,0,1.14-.36c0,.4,0,.88,0,1.59v3.48A5.09,5.09,0,0,1,9.78,49.39Zm2.73,15v3.48a5.09,5.09,0,0,1-2.44,4.53V66.41c0-.25,0-3.1,0-4.71a7.31,7.31,0,0,0,2.46-2C12.53,61.05,12.51,63.33,12.51,64.34Zm0-12.58v3.47a5.11,5.11,0,0,1-2.46,4.56c0-.25,0-.5,0-.77V53c0-.19,0-1.07,0-1.85a9.48,9.48,0,0,0,1.45-.95c.3-.11.65-.24,1-.4C12.54,50.45,12.51,50.44,12.51,51.76Zm1.34-2.62A7.06,7.06,0,0,0,15.28,48c.18-.09.35-.17.51-.27,0,.31,0,.66,0,1.05V52.3a5.14,5.14,0,0,1-2,4.26,8.86,8.86,0,0,0,.06-1.05V50.37C13.82,50,13.82,49.56,13.85,49.14Zm1.93,10.42v3.49a5.13,5.13,0,0,1-2,4.21V63c0-.43,0-3,0-4.49a6.5,6.5,0,0,0,2-1.71C15.79,57.7,15.78,58.91,15.78,59.56Zm0-20.09V43a5.11,5.11,0,0,1-2.34,4.48A7.59,7.59,0,0,0,13.82,45V39.83c0-.27,0-.56,0-.85a6.8,6.8,0,0,0,1.62-1.36l.39-.2C15.8,37.92,15.78,38.58,15.78,39.47Zm3.34,19.07a4.43,4.43,0,0,1-2,3.05V59.1c0-.6,0-3.91,0-5.5a7.72,7.72,0,0,0,2.07-2.3C19.17,54,19.12,57.78,19.12,58.54Zm-2-11.6a7.72,7.72,0,0,0,2.08-2.28c0,1.89,0,3.63,0,4.11a4.41,4.41,0,0,1-2,3.06V48.35C17.09,47.94,17.07,47.44,17.08,46.94Zm2-4.87c0,1.17-1,2.33-2.29,3.27a7.89,7.89,0,0,0,.26-2.1V39a17.84,17.84,0,0,1,.06-2.4,7.62,7.62,0,0,0,2.05-2.25C19.19,37.09,19.12,41.28,19.12,42.07ZM16.31,79.13c.09.38.52,3-.46,3.24S14,82,14.7,80.08c.36-1-.23-2.92.38-3,.79-.18,1.47,1,1.72,1.77a1.54,1.54,0,0,1,0,.66C16.6,79.12,16.28,78.51,16.31,79.13ZM19,80a4.32,4.32,0,0,1-.1.54c-.19-.38-.53-1.42-.53-.74,0,.48,0,3.23-.86,3.32s-1.09-.71-.62-1.67.11-3.67.74-3.72,1.11.57,1.36,1.22A3.57,3.57,0,0,1,19,80Zm4.18-5.72c-.28.6-.74.72-1,1.11s-.16,1.32-.55,1.72-.4.48-.3,1.17a2.32,2.32,0,0,0-.79-.8.94.94,0,0,0-1.43.35c-.09-.13-.19-.28-.3-.41.08-.15.18-.34.26-.52.18-.39.13-1,.26-1.17s.47-.39.63-.71.11-1,.27-1.39a6.48,6.48,0,0,0,.52-1A12.67,12.67,0,0,1,21,71.29a5.39,5.39,0,0,1,1.4-1.79,15.67,15.67,0,0,0,.22,3A15.56,15.56,0,0,0,24,71a3,3,0,0,1-.44,1.78C23.31,73.33,23.45,73.65,23.15,74.24Zm3.55,4.38a6.33,6.33,0,0,0,1.07-2.69C28,75,30.56,65.39,31.19,63a8,8,0,0,1,1.12-1,2,2,0,0,1,.92-.39c-.64,2.42-3,13.36-3.52,15.57C29.34,78.62,28.25,78.91,26.7,78.62Zm5.94-.19c-.27,1.43-.42,2.36-2.08,1.95-1.08-.26-.13-1.93.06-3.11.18-1,2.79-13.76,3.18-15.69a6.8,6.8,0,0,1,1.52.12C35,63.07,32.65,78.39,32.64,78.43Zm4.65-2c-.11,1.41-.21,2.46-.27,2.81-.53,2.75-4,2.55-3.43-1,.16-1,2-13.75,2.36-16.45a7.87,7.87,0,0,1,2,.86C37.94,64.13,37.55,71.69,37.29,76.48Zm2.16,5.41c-.69-.41-1.23-1.14-1.23-3.16,0-1.86.28-13.7.34-15.61a2.54,2.54,0,0,1,.89,1.44,2.51,2.51,0,0,1,.9-1.44c0,1.91.33,13.75.33,15.61C40.68,80.75,40.15,81.48,39.45,81.89Zm2.44-2.6c-.06-.35-.15-1.4-.27-2.8-.26-4.79-.66-12.37-.68-13.8a7.59,7.59,0,0,1,2-.86c.39,2.7,2.19,15.49,2.36,16.45C45.93,81.84,42.42,82,41.89,79.29Zm6.46,1.09c-1.67.41-1.81-.52-2.08-1.95,0,0-2.35-15.36-2.68-16.73a6.76,6.76,0,0,1,1.52-.12c.35,1.69,3,14.74,3.18,15.69C48.48,78.45,49.42,80.12,48.35,80.38Zm2.79-4.45a6.47,6.47,0,0,0,1.06,2.69c-1.55.29-2.64,0-3-1.4-.47-2.21-2.89-13.15-3.52-15.57a2,2,0,0,1,.92.39,8,8,0,0,1,1.12,1C48.35,65.39,50.91,75,51.14,75.93Zm11,2.87c.25-.82.93-2,1.71-1.77.61.13,0,2.09.39,3,.73,1.88-.29,2.51-1.15,2.29s-.55-2.86-.46-3.24c0-.62-.3,0-.52.33A1.06,1.06,0,0,1,62.11,78.8Zm-.8-1.11c.63,0,.28,2.77.74,3.72s.27,1.75-.62,1.67-.86-2.84-.86-3.32c0-.68-.34.36-.53.74,0-.17-.08-.35-.11-.54a3.89,3.89,0,0,1,0-1C60.19,78.26,60.67,77.65,61.31,77.69ZM59,75c.16.32.53.55.62.71s.09.78.27,1.17a5,5,0,0,0,.26.52,4.7,4.7,0,0,0-.3.41.94.94,0,0,0-1.43-.35,2.32,2.32,0,0,0-.79.8c.1-.69,0-.9-.3-1.17s-.23-1.23-.55-1.72-.71-.51-1-1.11-.15-.91-.45-1.5A3.2,3.2,0,0,1,54.86,71a18.54,18.54,0,0,0,1.42,1.49,14.22,14.22,0,0,0,.23-3,5.39,5.39,0,0,1,1.4,1.79c.12.3.22,1.19.27,1.34a5.67,5.67,0,0,0,.52,1C58.85,73.94,58.81,74.65,59,75Zm.21-26c0,.07,0,.15,0,.22A1.48,1.48,0,0,1,59.18,49ZM61.81,59.1v2.5c-1.15-.91-2-2-2-3.06,0-.76-.06-4.53-.07-7.24a7.66,7.66,0,0,0,2.08,2.31C61.85,55.2,61.81,58.51,61.81,59.1ZM59.73,44.64a7.7,7.7,0,0,0,2.09,2.3c0,.5,0,1,0,1.41v3.48a4.41,4.41,0,0,1-2-3.06C59.78,48.29,59.75,46.55,59.73,44.64Zm.05-2.57c0-.79-.06-5-.07-7.71a7.57,7.57,0,0,0,2,2.25,17.84,17.84,0,0,1,.06,2.4v4.23a8.32,8.32,0,0,0,.26,2.1C60.8,44.4,59.78,43.24,59.78,42.07ZM65.08,63v4.31a5.13,5.13,0,0,1-2-4.21V59.56c0-.65,0-1.86,0-2.81a6.5,6.5,0,0,0,2,1.71C65.09,59.94,65.08,62.52,65.08,63Zm-2-10.65V48.81c0-.39,0-.74,0-1.05.17.1.35.18.52.27a7.35,7.35,0,0,0,1.43,1.11c0,.42,0,.85,0,1.23v5.14a8.81,8.81,0,0,0,.07,1.05A5.14,5.14,0,0,1,63.12,52.3Zm0-9.34V39.47c0-.89,0-1.55-.06-2,.13.07.26.14.4.2A6.55,6.55,0,0,0,65.07,39c0,.3,0,.58,0,.85V45a7.86,7.86,0,0,0,.38,2.47A5.09,5.09,0,0,1,63.12,43Zm5.7,23.45v5.94a5.11,5.11,0,0,1-2.43-4.53V64.34c0-1,0-3.29,0-4.65a7.15,7.15,0,0,0,2.46,2C68.83,63.31,68.82,66.16,68.82,66.41ZM66.39,55.23V51.76c0-1.32,0-1.31,0-2,.38.16.72.29,1,.4a8.94,8.94,0,0,0,1.44.95V59c0,.27,0,.52,0,.77A5.13,5.13,0,0,1,66.39,55.23Zm0-10.54V41.21c0-.71,0-1.19,0-1.59a9,9,0,0,0,1.14.36,8.18,8.18,0,0,0,1.3.84v6.39a7.94,7.94,0,0,0,.29,2.18A5.1,5.1,0,0,1,66.39,44.69Zm3.75,27.46V68.32c0-.67,0-3.12-.07-5a6.59,6.59,0,0,0,2.69,2c0,2.83,0,5.1,0,5.52v2.23h0v1.39A5.39,5.39,0,0,0,73,76.92,5.13,5.13,0,0,1,70.14,72.15Zm0-13.41V54.91c0-.68,0-2.11-.07-3.2l.44.17a7.81,7.81,0,0,0,2.25,1.61c0,1.28,0,3,0,4v2.23h0v1.65h0v.08A8.59,8.59,0,0,0,73,63.57,5.28,5.28,0,0,1,70.14,58.74Zm0-11.8V43.11a17.1,17.1,0,0,0-.07-1.73l.44.16a7.67,7.67,0,0,0,2.25,1.62c0,.8,0,1.65,0,2.49v3.76a7.87,7.87,0,0,0,.33,2.34A5.1,5.1,0,0,1,70.14,46.94Zm4,34.94V79h0c0-1.85,0-3.46,0-4V70.57c0-.38,0-2.28,0-4.73l.25.09a7.61,7.61,0,0,0,2.37,1.77V83.37a4.85,4.85,0,0,0,.52,2.56C75.86,85.36,74.1,83.72,74.1,81.88ZM74.1,62c0-.45,0-4.13,0-4.85S74,55,73.94,54l.66.24a7.5,7.5,0,0,0,2,1.43V63.5a4.82,4.82,0,0,0,.52,2.56C75.86,65.49,74.1,63.92,74.1,62Zm0-12.87V45.35c0-.62,0-1.17-.07-1.67l.62.23a7.5,7.5,0,0,0,2,1.43v6.14A4.81,4.81,0,0,0,77.16,54,5.12,5.12,0,0,1,74.05,49.14ZM74,38.8V37.43h0c0-.69,0-1.36,0-1.68,0-1.29-.21-3-1.44-3.83.37,1.44.13,1.7.13,4.13v3a7.89,7.89,0,0,0,.33,2.35,5.12,5.12,0,0,1-2.93-4.81c0-.89-.22-4.53-1.32-6v6.31a7.7,7.7,0,0,0,.3,2.2c-3.33-1.68-3-7.43-4.08-9.66,0,1.93,0,3.29,0,5.21a8,8,0,0,0,.38,2.48c-2.91-1.87-3.25-5.51-3.48-8.24A11.74,11.74,0,0,0,62,35.05a8.93,8.93,0,0,1-2.91-7,9.41,9.41,0,0,0,0,5c-.11,2.14-.09,19-.09,20.9a6,6,0,0,1-2.12-5.1c0-.42.08-.81.14-1.18.78-5.28.94-12.88-1.24-19C57.59,38.26,55.4,48,55.09,50c-.55,3.51.64,10.79,3.12,18.85-.48-.47-2.13-1.16-2.79-1.83,0,.73.26,1.52.26,3.11-.85-1.43-1.17-1.48-2.07-3.06a16.52,16.52,0,0,1,.19,3.63c-.87-1.67-1.35-3.87-3.37-7-4.49-7-11-2.67-11-1.44,0-1.23-6.48-5.58-11,1.44-2,3.16-2.5,5.36-3.38,7a16.57,16.57,0,0,1,.2-3.63c-.9,1.58-1.23,1.63-2.07,3.06,0-1.59.26-2.38.26-3.11-.66.67-2.31,1.36-2.79,1.83C23.18,60.78,24.37,53.5,23.82,50c-.31-2-2.5-11.73-.74-21.23-2.18,6.08-2,13.68-1.24,19,.05.37.1.77.14,1.18A6,6,0,0,1,19.84,54c0-1.84,0-18.74-.08-20.91a9.41,9.41,0,0,0,0-5,8.89,8.89,0,0,1-2.91,7,11.84,11.84,0,0,0,.05-6.18c-.23,2.73-.56,6.37-3.48,8.24a7.69,7.69,0,0,0,.38-2.48c0-1.92,0-3.28,0-5.21-1.08,2.23-.75,8-4.08,9.66a7.72,7.72,0,0,0,.29-2.2V30.57c-1.09,1.51-1.3,5.15-1.3,6a5.12,5.12,0,0,1-2.94,4.81,7.87,7.87,0,0,0,.34-2.35v-3c0-2.43-.25-2.69.12-4.13-1.23.83-1.44,2.54-1.43,3.83v1.68h0V38.8a5.12,5.12,0,0,1-3.12,4.9,4.81,4.81,0,0,0,.52-2.55V27.89c0-3.73,4.35-8,6-9.9,4.46-5.22,6.4-1,10.89.54,7.47,2.54,11.45-.29,11.45-.29,4-2.51,4-4.87,4-6.35a5.13,5.13,0,0,0-1.12-3.14A6.82,6.82,0,0,0,29.23,7a13.61,13.61,0,0,1-1.88.6c-.42-.84-.31-2.11,1.56-3.15.53-.29.34-1,1.94-1.89,4.69-2.74,9.28-1.75,12,1.24A12.16,12.16,0,0,0,39.36,3,12.49,12.49,0,0,1,46,8.74c.71,1.23,2.29,4.6,2.85,5.62,1.2,2.18,3.36,6.75,11,4.17C64.28,17,66.22,12.77,70.68,18c1.61,1.89,6,6.17,6,9.9V41.15a4.81,4.81,0,0,0,.52,2.55A5.13,5.13,0,0,1,74,38.8Z"></path><path class="cls-19" d="M22.62,72.45a15.67,15.67,0,0,1-.22-3A5.39,5.39,0,0,0,21,71.29a12.67,12.67,0,0,0-.27,1.34,6.48,6.48,0,0,1-.52,1c-.16.35-.11,1.06-.27,1.39s-.53.55-.63.71-.08.78-.26,1.17c-.08.18-.18.37-.26.52.11.13.21.28.3.41a.94.94,0,0,1,1.43-.35,2.32,2.32,0,0,1,.79.8c-.1-.69,0-.9.3-1.17s.23-1.23.55-1.72.71-.51,1-1.11.16-.91.45-1.5A3,3,0,0,0,24,71,15.56,15.56,0,0,1,22.62,72.45Z"></path><path class="cls-19" d="M57.91,71.29a5.39,5.39,0,0,0-1.4-1.79,14.22,14.22,0,0,1-.23,3A18.54,18.54,0,0,1,54.86,71a3.2,3.2,0,0,0,.44,1.78c.3.59.16.91.45,1.5s.75.72,1,1.11.16,1.32.55,1.72.4.48.3,1.17a2.32,2.32,0,0,1,.79-.8.94.94,0,0,1,1.43.35,4.7,4.7,0,0,1,.3-.41,5,5,0,0,1-.26-.52c-.18-.39-.13-1-.27-1.17S59.13,75.3,59,75s-.12-1-.27-1.39a5.67,5.67,0,0,1-.52-1C58.13,72.48,58,71.59,57.91,71.29Z"></path><path class="cls-19" d="M59.19,49.17c0-.07,0-.15,0-.22A1.48,1.48,0,0,0,59.19,49.17Z"></path><path class="cls-3" d="M29.62,7.44c-.76.48-1,.6-1.42.81a6.12,6.12,0,0,0,2.37-.19h0c.45-.09.5.07,1,.27A5.22,5.22,0,0,0,29.62,7.44Z"></path><path class="cls-20" d="M54,38.5A14.56,14.56,0,1,1,39.48,23.94,14.56,14.56,0,0,1,54,38.5Z"></path><path class="cls-21" d="M51.74,38.49A12.37,12.37,0,1,1,39.37,26.12,12.37,12.37,0,0,1,51.74,38.49Z"></path><path class="cls-22" d="M51,34.37h0c-10.79-2.88-23.33,0-23.33,0a12.37,12.37,0,0,1,23.33,0Z"></path><path class="cls-1" d="M51,42.61h0c-10.79,2.88-23.33,0-23.33,0a12.37,12.37,0,0,0,23.33,0Z"></path><image width="16" height="8" transform="translate(34.49 42.15)"></image><image width="16" height="8" transform="translate(34.49 26.15)"></image><path class="cls-23" d="M41.28,33.58a60.32,60.32,0,0,1,8.81,1c1.11,1.12,1,5.79,0,7.77a56.5,56.5,0,0,1-8,1,62.82,62.82,0,0,1-6.91-.19A45.53,45.53,0,0,1,35,38.49c0-3.34.15-4.74.15-4.74A50,50,0,0,1,41.28,33.58Z"></path><path class="cls-24" d="M34.33,38.23a79.58,79.58,0,0,0,.81,11.89,12.37,12.37,0,0,1,0-23.27A63.35,63.35,0,0,0,34.33,38.23Z"></path><image width="8" height="21" transform="translate(27.49 28.15)"></image><path class="cls-1" d="M39.46,53.7A15.18,15.18,0,1,1,54.65,38.53,15.19,15.19,0,0,1,39.46,53.7Zm0-29.32A14.15,14.15,0,1,0,53.61,38.53,14.16,14.16,0,0,0,39.46,24.38Z"></path><path class="cls-1" d="M48.26,51.39l-1.59-.47-.42-1.59s0,0,0,0l0,0s-.71,1-.93,1.31c-.36,0-1.61-.1-1.61-.1l0,0a.08.08,0,0,0,0,0l1,1.32c-.12.34-.62,1.57-.62,1.57s0,0,0,0,0,0,0,0l1.52-.64,1.21,1h0l0,0s0-1.34,0-1.55l1.42-.81s0,0,0,0a0,0,0,0,0,0,0"></path><path class="cls-3" d="M47,51.6s0,0,0,0a0,0,0,0,0,0,0l-.18-.06-.54-.18L46.16,51l-.11-.46h0s0,0,0,0h0l-.48.63-.78,0a0,0,0,0,1,0,0h0v0s0,0,0,0l.48.65-.15.41-.11.3v0h0s0,0,0,0h0l.27-.11.39-.17.66.52h0s0,0,0,0V52l.64-.35h0"></path><path class="cls-1" d="M35.11,50.55l0,0s-1.26.1-1.62.1c-.21-.28-.92-1.31-.92-1.31l0,0s0,0,0,0l-.42,1.59-1.59.47a0,0,0,0,0,0,0s0,0,0,0l1.42.81c0,.21,0,1.55,0,1.55l0,0h0l1.21-1,1.52.64h0a.06.06,0,0,0,0,0s-.5-1.23-.63-1.57l1-1.32a0,0,0,0,0,0,0"></path><path class="cls-3" d="M33.76,51.55l.27-.37a0,0,0,0,0,0,0v0l0,0-.78,0L33,50.83l-.24-.32h0l0,0-.2.79-.36.12-.36.12a0,0,0,0,0,0,0s0,0,0,0l.64.34v.83a0,0,0,0,0,0,0h0l.41-.32.24-.2.49.21.18.07s0,0,0,0h0a.06.06,0,0,0,0,0l-.15-.41-.12-.3Z"></path><path class="cls-1" d="M30.33,29.44l-1.49-.77L28.72,27a0,0,0,0,0,0,0s0,0,0,0-.84.93-1.08,1.22l-1.5-.35,0,0a0,0,0,0,0,0,0s.49,1.09.65,1.42c-.21.28-.91,1.33-.91,1.33a0,0,0,0,0,0,.05h0s1.26-.22,1.62-.26l1,1.24h0s0,0,0,0,.21-1.23.28-1.57c.34-.15,1.51-.6,1.51-.6l0,0a.05.05,0,0,0,0,0"></path><path class="cls-1" d="M41.75,23s0,0,0,0-1.27-.09-1.63-.1c-.15-.33-.69-1.38-.69-1.38v0h0l0,0s-.54,1.05-.69,1.38c-.35,0-1.63.1-1.63.1l0,0s0,0,0,0,1,.87,1.23,1.12l-.32,1.61a.08.08,0,0,0,0,0h0s1.09-.63,1.4-.78c.32.15,1.41.78,1.41.78h0s0,0,0,0l-.32-1.61c.26-.25,1.24-1.12,1.24-1.12a.06.06,0,0,0,0,0"></path><path class="cls-3" d="M40.51,23.41s0,0,0,0l-.73,0-.36-.75s0,0,0,0,0,0,0,0l-.36.75-.73,0s0,0,0,0a.06.06,0,0,0,0,0l.55.53-.16.8s0,0,0,0h0l.7-.36.7.36h0s0,0,0,0L40,24l.54-.53a0,0,0,0,0,0,0"></path><path class="cls-1" d="M53,30.66s-.71-1.05-.92-1.34c.17-.32.65-1.41.65-1.41s0,0,0,0a.05.05,0,0,0,0,0l-1.49.35c-.24-.29-1.09-1.22-1.09-1.22s0,0,0,0,0,0,0,0l-.13,1.66-1.48.77a.05.05,0,0,0,0,0l0,0s1.17.45,1.51.6c.07.34.27,1.57.27,1.57l0,0h0l1.05-1.25,1.61.27s0,0,0,0,0,0,0,0"></path><path class="cls-3" d="M51.89,30l-.44-.58.37-.75a0,0,0,0,0,0,0h0l-.82.19-.48-.56s0,0,0,0,0,0,0,0l-.06.76-.73.38,0,0s0,0,0,0l.72.32.16.78s0,0,0,0h0l.52-.62.77.09,0,0a0,0,0,0,0,0,0"></path><path class="cls-3" d="M29.09,29.37,28.36,29l-.05-.76s0,0,0,0,0,0,0,0l-.47.56-.83-.19h0a0,0,0,0,0,0,0l.37.75-.44.58a0,0,0,0,0,0,0,.05.05,0,0,0,0,0l.75-.09.53.62h0s0,0,0,0l.16-.78.71-.32s0,0,0,0l0,0"></path><path class="cls-1" d="M27.36,42.79s-.83-.92-1.06-1.2c.09-.35.44-1.54.44-1.54s0,0,0,0h0l-1.5.66c-.3-.19-1.34-.94-1.34-.94h0s0,0,0,0S24,41,24,41.37l-1.21,1s0,0,0,0a0,0,0,0,0,0,0s1.16.29,1.51.36c.09.35.48,1.55.48,1.55a0,0,0,0,0,0,0h0l0,0s.62-1.12.81-1.42l1.63,0s0,0,0,0a0,0,0,0,0,0,0"></path><path class="cls-3" d="M26.26,42.32l-.52-.61L26,41s0,0,0,0,0,0,0,0l-.74.33-.65-.42h0a.05.05,0,0,0,0,0l.15.71-.66.52s0,0,0,0,0,0,0,0l.81.19L25,43a0,0,0,0,0,0,0h0s0,0,0,0l.41-.65.81,0s0,0,0,0a0,0,0,0,0,0,0"></path><path class="cls-1" d="M55.9,42.34l-1.22-1c.08-.36.25-1.6.25-1.6s0,0,0,0h0s-1,.75-1.34.94L52,40h0s0,0,0,0l.44,1.54-1.06,1.2a0,0,0,0,0,0,0s0,0,0,0l1.63,0c.19.3.81,1.42.81,1.42l0,0h0a0,0,0,0,0,0,0s.38-1.2.47-1.55c.36-.07,1.52-.36,1.52-.36s0,0,0,0a0,0,0,0,0,0,0"></path><path class="cls-3" d="M54.79,42.09l-.66-.52.14-.71s0,0,0,0h0l-.64.42-.74-.33s0,0,0,0,0,0,0,0l.21.76-.52.61a0,0,0,0,0,0,0s0,0,0,0l.81,0,.4.65,0,0h0s0,0,0,0l.17-.7.82-.19s0,0,0,0a.06.06,0,0,0,0,0"></path><path class="cls-3" d="M60.21,93.06a1.25,1.25,0,0,1-1,1.51,1.32,1.32,0,0,1-1.53-.5.91.91,0,0,0,1,.27.86.86,0,0,0,.65-1h0c-.19-.61-.39-1.23-.57-1.84a.4.4,0,0,0-.54-.24q.46-.75.9-1.5C59.5,90.85,59.85,92,60.21,93.06Z"></path><path class="cls-3" d="M35,97.29a.42.42,0,0,0,.48-.35.43.43,0,0,0-.42-.41.44.44,0,0,0-.49.35A.42.42,0,0,0,35,97.29Z"></path><path class="cls-3" d="M23.06,89a.41.41,0,0,0-.51.25.41.41,0,0,0,.31.49.4.4,0,0,0,.5-.26A.4.4,0,0,0,23.06,89Z"></path><path class="cls-3" d="M52.5,90.4a.39.39,0,1,0,.49.3A.4.4,0,0,0,52.5,90.4Z"></path><path class="cls-3" d="M36.82,97.39a.39.39,0,0,0,.46-.36.41.41,0,0,0-.43-.4.43.43,0,0,0-.47.36A.41.41,0,0,0,36.82,97.39Z"></path><path class="cls-3" d="M33.91,97.21a.43.43,0,0,0,.49-.35.43.43,0,0,0-.42-.41.43.43,0,0,0-.49.34A.42.42,0,0,0,33.91,97.21Z"></path><path class="cls-3" d="M24,89.23a.41.41,0,0,0-.51.27.4.4,0,0,0,.31.48.4.4,0,0,0,.5-.27A.42.42,0,0,0,24,89.23Z"></path><path class="cls-3" d="M53.48,90.19a.39.39,0,1,0,.17.75.39.39,0,1,0-.17-.75Z"></path><path class="cls-3" d="M69.33,88.89h0c-.11-.23-.23-.46-.35-.69h0l-2.76-5.51,1.59.4a.49.49,0,0,0-.12.67q1.22,2.35,2.45,4.71C69.87,88.62,69.6,88.75,69.33,88.89Z"></path><path class="cls-3" d="M47.57,95.45h0c-.27-2.3-.55-4.59-.83-6.89l1.34.92a.5.5,0,0,0-.33.59c.23,1.76.47,3.51.7,5.27Z"></path><path class="cls-3" d="M29.32,95.09h0c.36-2.28.73-4.56,1.09-6.85.34.42.68.83,1,1.25A.51.51,0,0,0,31,90c-.26,1.75-.51,3.5-.77,5.26Z"></path><path class="cls-3" d="M57.55,93.46h0l-.21-.75h0q-.83-3-1.67-5.93c.49.24,1,.48,1.47.7a.5.5,0,0,0-.24.64c.5,1.7,1,3.4,1.51,5.1Z"></path><path class="cls-3" d="M56.67,93.69l-1-3.71-1,1.35a.49.49,0,0,1,.54.41l.36,1.44c-1.28.32-2.57.6-3.86.84l-.52.1c-.27-.16-.54-.32-.8-.49A2.94,2.94,0,0,0,51.18,91,2.93,2.93,0,0,1,49,93.7c.65.43,1.31.84,2,1.24l.87-.16h0C53.49,94.48,55.09,94.12,56.67,93.69Z"></path><path class="cls-3" d="M63,88.94h0c.55.2,1.1.4,1.66.58l.54,1.28q-.63.27-1.26.51c-.1-.24-.19-.48-.28-.72l.42-.17-.12-.28L63.38,90h0C63.25,89.62,63.12,89.28,63,88.94Zm-2,3.47h0c-.08-.25-.17-.49-.25-.74h0c-.66-1.94-1.32-3.89-2-5.83.5.21,1,.42,1.52.61a.51.51,0,0,0-.22.65c.51,1.43,1,2.86,1.52,4.28l.86-.31c-.08-.19-.15-.38-.22-.57.28-.52.55-1,.81-1.56.14.34.27.68.4,1l-.27.52c0,.1.08.19.11.29l.42-.17c.09.24.18.48.28.72-.71.28-1.41.55-2.12.8l-.21.07Z"></path><path class="cls-3" d="M42.72,92h0a1.34,1.34,0,0,1,.88.57l1-.07c-.38.85-.79,1.71-1.21,2.55.77,0,1.55-.1,2.33-.17l-.42-4.53a.5.5,0,0,0-.45-.5c.37-.39.73-.79,1.09-1.19.25,2.3.49,4.6.74,6.9h0l-.77.08H45.8c-1,.09-1.92.15-2.89.2,0-.51,0-1-.08-1.54h0c.16-.31.32-.63.47-1l-.25,0a.62.62,0,0,0-.29-.46h0C42.75,92.61,42.74,92.3,42.72,92ZM40.08,96.3a1.23,1.23,0,0,1-1.34,1.15,1.3,1.3,0,0,1-1.3-.93.9.9,0,0,0,.84.54.85.85,0,0,0,.91-.76h0c0-.64,0-1.28,0-1.92a.39.39,0,0,0-.42-.4c.43-.38.86-.76,1.28-1.15,0,.77,0,1.54,0,2.31.76,0,1.52,0,2.28,0-.5-.8-1-1.61-1.45-2.42l1,0a1.32,1.32,0,0,1,.81-.65c0,.31,0,.62,0,.92a.63.63,0,0,0-.22.48h-.26c.18.31.36.6.55.9,0,.52.05,1,.08,1.54-.94,0-1.89.07-2.83.08Z"></path><path class="cls-3" d="M25.37,94.34q1.1.24,2.19.45l.1,0,.77.13h0q.6-3.42,1.18-6.84c-.45.29-.92.57-1.38.84a.5.5,0,0,1,.3.62c-.28,1.48-.56,3-.83,4.46l-.87-.17.12-.61c-.36-.46-.7-.93-1-1.4l-.24,1.06c.12.15.24.31.35.47l-.06.3-.44-.1C25.48,93.83,25.43,94.09,25.37,94.34ZM19.75,92h0l.09-.3a1.34,1.34,0,0,0-.94-1.61L18.74,90h0c-1.61-.56-3.21-1.19-4.78-1.89.11-.23.22-.47.32-.7a.38.38,0,0,1,.54-.18c-.24-.52-.47-1-.69-1.57l-1.29,2.79c1.9.88,3.84,1.66,5.8,2.34a.5.5,0,0,1,.36.61h0c0,.09-.07.19-.1.29h0l-.27.8-.54.22-.3-.53c.09-.26.18-.52.28-.78l-.63-.22-.22-.09q-2.37-.87-4.7-1.94c-.11.24-.22.47-.32.71,1.56.71,3.15,1.37,4.75,2,0,.12-.08.24-.13.36.3.52.6,1,.92,1.56h0l1.65-.66.12-.38q.93.3,1.86.57a1.75,1.75,0,0,0,.47.47,1.93,1.93,0,0,1-.21-.4c.51.15,1,.3,1.55.43.73.19,1.46.37,2.19.53.06-.25.11-.51.17-.76l-.43-.1c0-.1.05-.19.07-.29l.51-.28h0l.24-1.06h0c-.51.28-1,.56-1.54.83,0,.2-.09.4-.14.6l-.87-.22L24,90.52c-.5.24-1,.48-1.53.71a.5.5,0,0,1,.27.64c-.08.32-.18.65-.27,1l-.37-.11h0l-.72-.21a4.2,4.2,0,0,1,.11-.92,3.17,3.17,0,0,0-.74-3.29l-1,.48a2,2,0,0,1,1.31,1.65c.12.75-.29,1.31-.08,2-.41-.12-.82-.24-1.23-.38Z"></path><path class="cls-3" d="M32.92,94.8l.45,0,.09-1A1.57,1.57,0,0,1,33,94l.09-.87a.68.68,0,0,0,.49-.58c.08-.74.15-1.48.22-2.22a.49.49,0,0,0-.35-.57c.44-.32.88-.64,1.31-1-.18,2.06-.35,4.1-.52,6.15l1.41.11.06-1a.5.5,0,0,0-.4-.57c.45-.33.9-.66,1.34-1,0,.87-.09,1.75-.13,2.62l.88,0c0-.34,0-.67,0-1a.5.5,0,0,0-.41-.55l1.31-1c0,1.13-.05,2.26-.07,3.39-1.32,0-2.63-.09-3.94-.2h0l-1.5-.14C32.87,95.31,32.9,95.05,32.92,94.8Zm0-.81h0a.41.41,0,0,0-.41.36c0,.13,0,.26-.05.4l.44,0c0,.25-.05.51-.08.76l-.28,0h0l-1.05-.13c0-.38.09-.77.14-1.16a1.26,1.26,0,0,1,1.19-1s.12,0,.26-.11L33,94Z"></path><path class="cls-3" d="M10.46,88.2l.41.2.44-.87a2,2,0,0,1-.48-.06l.39-.77a.74.74,0,0,0,.68-.37c.33-.67.65-1.33,1-2a.48.48,0,0,0-.13-.67l1.59-.43-3,6.26-1.24-.61C10.23,88.66,10.35,88.43,10.46,88.2Zm.3-.75h0a.44.44,0,0,0-.52.19l-.18.34.4.22c-.11.23-.23.46-.35.69l-1.22-.63.55-1a1.25,1.25,0,0,1,1.49-.52,1.22,1.22,0,0,1,.29,0l-.39.77Z"></path><path class="cls-3" d="M33.14,89a.4.4,0,0,0-.35-.43.41.41,0,0,0-.44.34.4.4,0,0,0,.79.09Z"></path><path class="cls-3" d="M33,89.92a.4.4,0,0,0-.36-.43.42.42,0,0,0-.45.33.4.4,0,0,0,.36.44A.4.4,0,0,0,33,89.92Z"></path><path class="cls-3" d="M11.53,83.29a.42.42,0,1,0,.54-.15A.4.4,0,0,0,11.53,83.29Z"></path><path class="cls-3" d="M12,82.47a.4.4,0,0,0,.19.53.39.39,0,0,0,.54-.15.41.41,0,0,0-.73-.38Z"></path><path class="cls-3" d="M66.46,87l-1.7-3.63c.57.19,1.14.37,1.72.54a.6.6,0,0,0-.22.71c.38.76.74,1.52,1.12,2.29-.12.29-.24.57-.37.86l.91.25.6,1.25-1.23.58-.33-.7.42-.2-.13-.27-.57-.16h0c-.15-.33-.31-.66-.46-1h0Zm.83,2.85-1.24.56c-.19-.42-.38-.85-.56-1.27.14-.29.27-.57.39-.86L65,88s0-.09-.07-.14c-.31-.73-.63-1.46-1-2.19a.61.61,0,0,0-.68-.3c.25-.55.49-1.1.72-1.66.54,1.22,1.1,2.43,1.64,3.65l.56.18c.15.32.31.65.46,1-.09.18-.17.36-.25.54s.09.18.13.28l.4-.19Z"></path><path class="cls-3" d="M68.15,90.76l.54.17L67,91.69l.22-.45c.06.06.15.06.26,0-.32-.29.06-.74.47-.6a.21.21,0,0,0-.13,0c-.12.06-.18.17-.13.27A.21.21,0,0,0,68,91,.21.21,0,0,0,68.15,90.76Z"></path><path class="cls-25" d="M103.62,29.36c0,3.85,1.66,4.48,3.09,4.48,1.68,0,3.08-.71,3.08-4.67V23c0-.39.17-.48.46-.52.6-.06,1.41-.08,1.82-.08,0,.83-.06,2.05-.06,3.77v2.94c0,5.8-3.06,6.63-5.59,6.63-3.5,0-5.39-1.8-5.39-6.26V25.2c0-1.39,0-2.24-.06-2.67.37-.07,1.8-.17,2.22-.17s.43.19.43,1.2Z"></path><path class="cls-25" d="M114.54,22.63v-.1c.39-.07,2.17-.17,2.55-.17.2,0,.37.14.58.37.66,1,2.36,3.55,3.85,5.84a36,36,0,0,1,2.19,3.69c-.12-1.59-.1-2.4-.1-3.44V23c0-.47.15-.56.44-.6.64-.06,1.2-.08,1.67-.08,0,.89-.06,2.09-.06,3.81v9.14a8.9,8.9,0,0,1-2,.33.55.55,0,0,1-.51-.29c-1.08-1.49-2.14-3.11-3.77-5.64-1.1-1.74-1.7-2.9-2.55-4.49.12,2.09.1,3.17.1,4.22v5.43c0,.44-.12.5-.45.56a10,10,0,0,1-1.66.08c0-.83.06-2,.06-3.77V23.15Z"></path><path class="cls-25" d="M128.77,25.16c0-1.39,0-2.24-.06-2.63a22.4,22.4,0,0,1,2.24-.17c.35,0,.41.19.41,1.12V32.8c0,1.45,0,2.13.06,2.55a15.1,15.1,0,0,1-2.21.16c-.32,0-.44-.06-.44-.41Z"></path><path class="cls-25" d="M137.12,24.16h-3.73c-.33,0-.5-.14-.35-.62a3.53,3.53,0,0,1,.68-1.2,17.2,17.2,0,0,0,3,.1h7.38c-.09,1.1-.64,1.62-1.08,1.72h-3.29v8.66c0,1.43,0,2.11.06,2.53a14,14,0,0,1-2.22.16c-.29,0-.43-.06-.43-.37Z"></path><path class="cls-25" d="M145.61,25.34c0-1,0-1.74-.06-2.61a12.12,12.12,0,0,1,2.34-.29h5a2.61,2.61,0,0,1-.62,1.6,7.56,7.56,0,0,1-1.94.12H148.2v3.71h4.52c-.19,1.45-.65,1.72-1.37,1.72H148.2v4.06a10.1,10.1,0,0,0,1.93.14c.85,0,2.36,0,3.35-.08l0,0a2.26,2.26,0,0,1-1.09,1.66,22,22,0,0,1-2.82.1,24.73,24.73,0,0,1-3.69-.2l-.31-.4Z"></path><path class="cls-25" d="M155.33,25.07c0-1.43,0-1.82,0-2.36a27.07,27.07,0,0,1,4.24-.39c6.24,0,7.36,3.75,7.36,6.4,0,4.47-3.21,6.88-7.46,6.88a19.6,19.6,0,0,1-4.1-.4Zm2.59,8.74a6.42,6.42,0,0,0,1.61.17c1.87,0,4.58-.89,4.58-5.22,0-3.13-1.78-4.83-4.87-4.83a6.5,6.5,0,0,0-1.32.11Z"></path><path class="cls-25" d="M175.92,31.83c-.48,1.2-1.08,2.73-1.35,3.39-.08.19-.25.29-.58.29a7.71,7.71,0,0,1-1.82-.27v-.08c1.08-2.53,4.31-10.23,5.09-12.12l-.16-.43a14.2,14.2,0,0,1,2.17-.25.53.53,0,0,1,.48.37c.95,2.28,2.53,6.36,3.25,8.16.85,2.12,1.35,3.42,1.76,4.29v.08a12.11,12.11,0,0,1-2.32.25c-.33,0-.49-.1-.7-.66-.37-1.06-.66-1.84-1.14-3Zm4.18-1.72c-.95-2.57-1.57-4.12-1.8-4.79-.52,1.37-1.1,3-1.8,4.79Z"></path><path class="cls-25" d="M189,34.89c0,.42-.12.5-.48.54-.58.06-1.72.08-2.13.08,0-.83.06-2,.06-3.79V24.78c0-1,0-1.53,0-2.11a26.58,26.58,0,0,1,3.56-.35c3.3,0,4.93,1.12,4.93,3.75a3.73,3.73,0,0,1-2.48,3.29A12.68,12.68,0,0,1,194.21,32a18.37,18.37,0,0,0,2.17,3.23v.09a4.74,4.74,0,0,1-1.67.2,2,2,0,0,1-1.85-.93,20.42,20.42,0,0,1-1.8-3.17c-.64-1.18-1-1.34-1.72-1.34H189Zm0-6.27a5.77,5.77,0,0,0,2-.15,2.22,2.22,0,0,0,1.26-2.17,2.21,2.21,0,0,0-2.36-2.45,6.23,6.23,0,0,0-.89.06Z"></path><path class="cls-25" d="M201,31.83c-.48,1.2-1.08,2.73-1.35,3.39-.08.19-.25.29-.58.29a7.56,7.56,0,0,1-1.82-.27v-.08c1.07-2.53,4.3-10.23,5.09-12.12l-.16-.43a13.94,13.94,0,0,1,2.17-.25.54.54,0,0,1,.48.37c.95,2.28,2.52,6.36,3.25,8.16.85,2.12,1.35,3.42,1.76,4.29v.08a12.2,12.2,0,0,1-2.32.25c-.33,0-.5-.1-.7-.66-.38-1.06-.67-1.84-1.14-3Zm4.18-1.72c-.95-2.57-1.57-4.12-1.8-4.79-.52,1.37-1.1,3-1.8,4.79Z"></path><path class="cls-25" d="M211.51,25.32c0-1.1,0-1.7-.06-2.63a23.45,23.45,0,0,1,3.79-.37c3.89,0,4.49,2,4.49,3.25a3.23,3.23,0,0,1-1.82,2.76,3.18,3.18,0,0,1,2.63,3.08c0,2.78-2.3,4.19-5.55,4.19a18.22,18.22,0,0,1-3.48-.36ZM214.06,28a10.57,10.57,0,0,1,2.19-.11,2.1,2.1,0,0,0,1-2,1.94,1.94,0,0,0-2.16-2.05,5.79,5.79,0,0,0-1,.09Zm0,5.92a5.56,5.56,0,0,0,1.07.1,2.34,2.34,0,0,0,2.61-2.46c0-1.37-1-2.14-2.73-2.14a4.35,4.35,0,0,0-.95.07Z"></path><path class="cls-25" d="M227.11,25.34c0-1,0-1.74-.06-2.61a12.12,12.12,0,0,1,2.34-.29h5a2.67,2.67,0,0,1-.62,1.6,7.65,7.65,0,0,1-2,.12H229.7v3.71h4.51c-.18,1.45-.64,1.72-1.37,1.72H229.7v4.06a10,10,0,0,0,1.92.14c.85,0,2.36,0,3.36-.08l0,0a2.27,2.27,0,0,1-1.1,1.66,22,22,0,0,1-2.82.1,24.55,24.55,0,0,1-3.68-.2l-.31-.4Z"></path><path class="cls-25" d="M247.53,22.65a8.5,8.5,0,0,1,2.2-.29c.2,0,.33.12.39.64l1.1,7.62c.33,2.18.56,3.71.74,4.71a13.63,13.63,0,0,1-2.07.18.52.52,0,0,1-.58-.52c-.12-1.05-.25-2.17-.47-4.37l-.6-5.19c-.58,1.8-1.81,5.24-3.13,9.13a.86.86,0,0,1-.75.68,7.47,7.47,0,0,1-1.28.15c-.5-1.62-2.32-7.11-3.25-9.92-.29,2.54-.91,7.29-1.23,9.71,0,.23-.14.33-.37.33a5.65,5.65,0,0,1-1.84-.18c.37-2.2,1.2-7.56,2-12.29l-.06-.39a10.47,10.47,0,0,1,2.25-.29c.31.08.48.37.85,1.43l2.8,7.73c1-2.72,2.42-6.45,3.29-8.56Z"></path><path class="cls-25" d="M254.23,25.16c0-1.39,0-2.24-.07-2.63.38-.07,1.8-.17,2.24-.17s.41.19.41,1.12V32.8c0,1.45.05,2.13.07,2.55a15.24,15.24,0,0,1-2.22.16c-.31,0-.43-.06-.43-.41Z"></path><path class="cls-25" d="M262.41,34.89c0,.42-.13.5-.48.54-.58.06-1.72.08-2.13.08,0-.83.06-2,.06-3.79V24.78c0-1,0-1.53,0-2.11a26.58,26.58,0,0,1,3.56-.35c3.29,0,4.93,1.12,4.93,3.75a3.74,3.74,0,0,1-2.48,3.29A13.08,13.08,0,0,1,267.65,32a17.82,17.82,0,0,0,2.17,3.23v.09a4.77,4.77,0,0,1-1.68.2,2,2,0,0,1-1.84-.93,20.42,20.42,0,0,1-1.8-3.17c-.64-1.18-1-1.34-1.72-1.34h-.37Zm0-6.27a5.77,5.77,0,0,0,2-.15,2.22,2.22,0,0,0,1.26-2.17,2.21,2.21,0,0,0-2.36-2.45,6.23,6.23,0,0,0-.89.06Z"></path><path class="cls-25" d="M274.44,31.83c-.47,1.2-1.07,2.73-1.34,3.39-.09.19-.25.29-.58.29a7.71,7.71,0,0,1-1.83-.27v-.08c1.08-2.53,4.31-10.23,5.1-12.12l-.17-.43a14.17,14.17,0,0,1,2.18-.25.53.53,0,0,1,.47.37c1,2.28,2.53,6.36,3.26,8.16.85,2.12,1.34,3.42,1.76,4.29v.08a12.28,12.28,0,0,1-2.32.25c-.33,0-.5-.1-.71-.66-.37-1.06-.66-1.84-1.14-3Zm4.19-1.72c-1-2.57-1.58-4.12-1.81-4.79-.51,1.37-1.09,3-1.8,4.79Z"></path><path class="cls-25" d="M286.5,24.16h-3.73c-.33,0-.5-.14-.35-.62a3.71,3.71,0,0,1,.68-1.2,17.28,17.28,0,0,0,3,.1h7.37c-.08,1.1-.64,1.62-1.08,1.72h-3.29v8.66c0,1.43,0,2.11.06,2.53a14,14,0,0,1-2.22.16c-.29,0-.43-.06-.43-.37Z"></path><path class="cls-25" d="M295,25.34c0-1,0-1.74-.06-2.61a12.12,12.12,0,0,1,2.34-.29h5a2.61,2.61,0,0,1-.62,1.6,7.56,7.56,0,0,1-1.94.12h-2.16v3.71h4.52c-.19,1.45-.65,1.72-1.37,1.72h-3.15v4.06a10.1,10.1,0,0,0,1.93.14c.85,0,2.36,0,3.35-.08l0,0a2.26,2.26,0,0,1-1.09,1.66,22.08,22.08,0,0,1-2.82.1,24.73,24.73,0,0,1-3.69-.2l-.31-.4Z"></path><path class="cls-25" d="M308.77,22.13a4.82,4.82,0,0,1,3,1c0,.51-.33,1.36-1.06,1.32a5.05,5.05,0,0,0-2-.52c-1.1,0-1.89.52-1.89,1.43s.68,1.47,2.61,2.57,2.92,1.84,2.92,3.81c0,2.57-2.24,4-4.68,4a5.35,5.35,0,0,1-3-.81c-.35-.23-.47-.43-.47-.7a2.37,2.37,0,0,1,.5-1.33,5.81,5.81,0,0,0,3,1c1.24,0,2.11-.54,2.11-1.6s-.48-1.43-2.57-2.57c-2.4-1.3-2.81-2.63-2.81-3.87,0-1.41,1-3.67,4.41-3.67Z"></path><path class="cls-25" d="M111.6,48.23a8.87,8.87,0,0,1,2.19-.29c.21,0,.33.13.39.65l1.1,7.62c.33,2.17.56,3.71.75,4.7a13.72,13.72,0,0,1-2.07.19.52.52,0,0,1-.58-.52c-.13-1.06-.25-2.18-.48-4.37l-.6-5.2c-.58,1.8-1.8,5.24-3.13,9.13a.86.86,0,0,1-.74.69,8.78,8.78,0,0,1-1.29.14c-.49-1.61-2.32-7.1-3.25-9.92-.29,2.55-.91,7.29-1.22,9.72a.34.34,0,0,1-.37.33,5.43,5.43,0,0,1-1.85-.19c.38-2.2,1.2-7.56,2-12.28l-.06-.4a10.58,10.58,0,0,1,2.26-.29c.31.09.47.38.85,1.43l2.79,7.73c1-2.71,2.43-6.44,3.3-8.55Z"></path><path class="cls-25" d="M118.29,50.74c0-1.39,0-2.24-.06-2.63.37-.06,1.8-.17,2.23-.17s.42.19.42,1.12v9.32c0,1.45,0,2.14.06,2.55a15.07,15.07,0,0,1-2.22.17c-.31,0-.43-.07-.43-.42Z"></path><path class="cls-25" d="M123.59,48.21v-.1c.4-.06,2.18-.17,2.55-.17.21,0,.37.15.58.38.66,1,2.36,3.54,3.85,5.84a38.25,38.25,0,0,1,2.2,3.69c-.13-1.6-.11-2.41-.11-3.44V48.63c0-.48.15-.56.44-.6q1-.09,1.68-.09c-.05.89-.07,2.1-.07,3.82v9.13a8.69,8.69,0,0,1-2,.33.54.54,0,0,1-.52-.29c-1.08-1.49-2.14-3.11-3.77-5.63-1.1-1.74-1.7-2.9-2.55-4.5.13,2.1.1,3.17.1,4.23v5.43c0,.43-.12.49-.45.55a8.82,8.82,0,0,1-1.66.09c0-.83.06-2,.06-3.77v-8.6Z"></path><path class="cls-25" d="M137.82,50.74c0-1.39,0-2.24-.06-2.63.37-.06,1.8-.17,2.24-.17s.41.19.41,1.12v9.32c0,1.45,0,2.14.06,2.55a15,15,0,0,1-2.21.17c-.31,0-.44-.07-.44-.42Z"></path><path class="cls-25" d="M147.12,47.72a4.85,4.85,0,0,1,3,1c0,.52-.33,1.37-1.06,1.33a5.15,5.15,0,0,0-2-.52c-1.1,0-1.88.52-1.88,1.43s.68,1.47,2.61,2.57,2.92,1.84,2.92,3.81c0,2.57-2.24,4-4.68,4a5.36,5.36,0,0,1-3-.8c-.35-.23-.48-.44-.48-.71a2.41,2.41,0,0,1,.5-1.32,6,6,0,0,0,3,1c1.25,0,2.12-.54,2.12-1.6s-.48-1.43-2.57-2.56c-2.4-1.31-2.82-2.63-2.82-3.88,0-1.41,1-3.66,4.41-3.66Z"></path><path class="cls-25" d="M155.49,49.75h-3.73c-.33,0-.49-.15-.35-.63a3.51,3.51,0,0,1,.69-1.2,15.45,15.45,0,0,0,3,.11h7.37c-.08,1.09-.64,1.61-1.08,1.72h-3.29V58.4c0,1.43,0,2.12.06,2.53a13.71,13.71,0,0,1-2.21.17c-.29,0-.44-.07-.44-.38Z"></path><path class="cls-25" d="M166.51,60.48c0,.41-.12.49-.47.53-.58.07-1.72.09-2.14.09,0-.83.07-2.05.07-3.79V50.37c0-1,0-1.54,0-2.11a24.72,24.72,0,0,1,3.56-.36c3.29,0,4.93,1.12,4.93,3.75a3.76,3.76,0,0,1-2.49,3.3,12.05,12.05,0,0,1,1.82,2.67,18.24,18.24,0,0,0,2.18,3.23v.08a4.73,4.73,0,0,1-1.68.21,2,2,0,0,1-1.84-.93,21.46,21.46,0,0,1-1.8-3.17c-.65-1.18-1-1.35-1.72-1.35h-.38Zm0-6.28a5.77,5.77,0,0,0,2-.15,2.18,2.18,0,0,0,1.27-2.17,2.21,2.21,0,0,0-2.37-2.44,6.33,6.33,0,0,0-.89.06Z"></path><path class="cls-25" d="M178,55.84a1.84,1.84,0,0,0-.17-1c-1.11-1.92-3-4.72-4.18-6.5v-.06a9.69,9.69,0,0,1,2.26-.38c.37,0,.52.11,1,1,.73,1.16,1.76,3,2.65,4.45.9-1.37,2.88-4.7,3.28-5.43a6.36,6.36,0,0,1,1.74.21c.33.13.29.4,0,.85-.52.85-3.59,5.39-3.81,5.74a1.72,1.72,0,0,0-.23.87v2.84c0,1.4,0,2,.06,2.48a11.21,11.21,0,0,1-2.28.17c-.31,0-.37-.07-.37-.38Z"></path><path class="cls-25" d="M196.82,47.72a6.34,6.34,0,0,1,6.61,6.67c0,3.7-2.3,6.89-6.69,6.89-4.79,0-6.67-3.54-6.67-6.67,0-3.91,2.5-6.89,6.73-6.89Zm-.25,1.61c-2,0-3.71,1.64-3.71,5s1.89,5.3,4.06,5.3c2.32,0,3.75-1.87,3.75-5.1,0-2.94-1.51-5.24-4.08-5.24Z"></path><path class="cls-25" d="M205.71,50.53c0-.91,0-1.47-.06-2.19a15.21,15.21,0,0,1,2.5-.31c.75,0,4.27,0,5.26,0a2.65,2.65,0,0,1-.72,1.59,4.5,4.5,0,0,1-1.62.13H208.3v4.12H213c-.21,1.57-.71,1.72-1.51,1.72H208.3c0,2.07,0,3.79.06,5.34a11.75,11.75,0,0,1-2.2.17c-.31,0-.45-.07-.45-.4Z"></path><path class="cls-25" d="M229.63,58.94a2.59,2.59,0,0,1-.68,1.64,6,6,0,0,1-3,.7c-4.73,0-7.27-2.69-7.27-6.65,0-4.28,3.25-6.91,7.35-6.91a6.26,6.26,0,0,1,3.81,1c0,.71-.43,1.41-1.1,1.31A7,7,0,0,0,226,49.5c-2.51,0-4.56,1.63-4.56,5a4.72,4.72,0,0,0,5.1,5,9.71,9.71,0,0,0,3-.52Z"></path><path class="cls-25" d="M234.38,57.41c-.48,1.2-1.08,2.73-1.35,3.4-.08.18-.25.29-.58.29a8.26,8.26,0,0,1-1.82-.27v-.09c1.08-2.52,4.31-10.23,5.09-12.11l-.16-.44a15.48,15.48,0,0,1,2.17-.25.54.54,0,0,1,.48.38c.95,2.28,2.53,6.36,3.25,8.16.85,2.11,1.35,3.42,1.76,4.29v.08a13,13,0,0,1-2.32.25c-.33,0-.49-.11-.7-.67-.37-1-.66-1.84-1.14-3Zm4.18-1.72c-.95-2.57-1.57-4.12-1.8-4.78-.52,1.36-1.1,3-1.8,4.78Z"></path><path class="cls-25" d="M244.88,50.91c0-1.1,0-1.7-.06-2.63a22.25,22.25,0,0,1,3.79-.38c3.89,0,4.49,2,4.49,3.25a3.22,3.22,0,0,1-1.82,2.76A3.2,3.2,0,0,1,253.91,57c0,2.77-2.3,4.18-5.55,4.18a19.17,19.17,0,0,1-3.48-.35Zm2.55,2.71a11.46,11.46,0,0,1,2.19-.1,2.11,2.11,0,0,0,1-2,1.93,1.93,0,0,0-2.16-2,7.19,7.19,0,0,0-1,.08Zm0,5.92a4.85,4.85,0,0,0,1.08.11,2.35,2.35,0,0,0,2.61-2.47c0-1.36-1-2.13-2.74-2.13a5.06,5.06,0,0,0-.95.06Z"></path><path class="cls-25" d="M256.13,50.74c0-1.39,0-2.24-.06-2.63.37-.06,1.8-.17,2.23-.17s.42.19.42,1.12v9.32c0,1.45,0,2.14.06,2.55a15,15,0,0,1-2.21.17c-.32,0-.44-.07-.44-.42Z"></path><path class="cls-25" d="M261.43,48.21v-.1c.4-.06,2.18-.17,2.55-.17.21,0,.37.15.58.38.66,1,2.36,3.54,3.85,5.84a36.29,36.29,0,0,1,2.2,3.69,34.3,34.3,0,0,1-.1-3.44V48.63c0-.48.14-.56.43-.6q1-.09,1.68-.09c0,.89-.06,2.1-.06,3.82v9.13a8.9,8.9,0,0,1-2,.33.55.55,0,0,1-.52-.29c-1.08-1.49-2.13-3.11-3.77-5.63-1.1-1.74-1.7-2.9-2.55-4.5.13,2.1.11,3.17.11,4.23v5.43c0,.43-.13.49-.46.55a8.77,8.77,0,0,1-1.66.09c.05-.83.07-2,.07-3.77v-8.6Z"></path><path class="cls-25" d="M275.67,50.93c0-1,0-1.74-.07-2.61a11.47,11.47,0,0,1,2.34-.29h5a2.73,2.73,0,0,1-.62,1.59,7.07,7.07,0,0,1-1.95.13h-2.16v3.7h4.52c-.19,1.45-.64,1.72-1.37,1.72h-3.15v4.06a9.24,9.24,0,0,0,1.93.15c.85,0,2.36,0,3.36-.09l0,.05a2.24,2.24,0,0,1-1.1,1.65,21.06,21.06,0,0,1-2.82.11,24,24,0,0,1-3.68-.21l-.31-.39Z"></path><path class="cls-25" d="M288.38,49.75h-3.72c-.34,0-.5-.15-.36-.63a3.51,3.51,0,0,1,.69-1.2,15.45,15.45,0,0,0,3,.11h7.37c-.08,1.09-.64,1.61-1.07,1.72H291V58.4c0,1.43,0,2.12.07,2.53a13.84,13.84,0,0,1-2.22.17c-.29,0-.44-.07-.44-.38Z"></path><path class="cls-25" d="M303.82,57.41l-1.35,3.4c-.08.18-.25.29-.58.29a8.17,8.17,0,0,1-1.82-.27v-.09c1.08-2.52,4.31-10.23,5.09-12.11l-.16-.44a15.32,15.32,0,0,1,2.17-.25.54.54,0,0,1,.48.38c1,2.28,2.53,6.36,3.25,8.16.85,2.11,1.35,3.42,1.76,4.29v.08a13,13,0,0,1-2.32.25c-.33,0-.5-.11-.7-.67-.38-1-.66-1.84-1.14-3ZM308,55.69c-.95-2.57-1.57-4.12-1.8-4.78-.52,1.36-1.1,3-1.8,4.78Z"></path><path class="cls-25" d="M314.34,50.53c0-.91,0-1.47-.06-2.19a15.21,15.21,0,0,1,2.51-.31c.74,0,4.26,0,5.26,0a2.7,2.7,0,0,1-.73,1.59,4.44,4.44,0,0,1-1.61.13h-2.78v4.12h4.68c-.21,1.57-.7,1.72-1.51,1.72h-3.17c0,2.07,0,3.79.06,5.34a11.71,11.71,0,0,1-2.19.17c-.31,0-.46-.07-.46-.4Z"></path><path class="cls-25" d="M323.75,50.53c0-.91,0-1.47-.07-2.19a15.51,15.51,0,0,1,2.51-.31c.75,0,4.27,0,5.26,0a2.65,2.65,0,0,1-.72,1.59,4.5,4.5,0,0,1-1.62.13h-2.77v4.12H331c-.21,1.57-.71,1.72-1.52,1.72h-3.16c0,2.07,0,3.79.06,5.34a11.75,11.75,0,0,1-2.2.17c-.31,0-.45-.07-.45-.4Z"></path><path class="cls-25" d="M334.73,57.41l-1.35,3.4c-.08.18-.25.29-.58.29a8.09,8.09,0,0,1-1.82-.27v-.09c1.07-2.52,4.3-10.23,5.09-12.11l-.16-.44a15.32,15.32,0,0,1,2.17-.25.55.55,0,0,1,.48.38c.95,2.28,2.52,6.36,3.25,8.16.85,2.11,1.35,3.42,1.76,4.29v.08a13.06,13.06,0,0,1-2.32.25c-.33,0-.5-.11-.7-.67-.38-1-.67-1.84-1.14-3Zm4.18-1.72c-1-2.57-1.57-4.12-1.8-4.78-.52,1.36-1.1,3-1.8,4.78Z"></path><path class="cls-25" d="M345.25,50.74c0-1.39,0-2.24-.06-2.63.37-.06,1.8-.17,2.23-.17s.42.19.42,1.12v9.32c0,1.45,0,2.14.06,2.55a15.07,15.07,0,0,1-2.22.17c-.31,0-.43-.07-.43-.42Z"></path><path class="cls-25" d="M353.43,60.48c0,.41-.12.49-.48.53-.58.07-1.71.09-2.13.09,0-.83.06-2.05.06-3.79V50.37c0-1,0-1.54,0-2.11a24.88,24.88,0,0,1,3.56-.36c3.3,0,4.93,1.12,4.93,3.75a3.75,3.75,0,0,1-2.48,3.3,12.41,12.41,0,0,1,1.82,2.67,17.7,17.7,0,0,0,2.18,3.23v.08a4.78,4.78,0,0,1-1.68.21,2.05,2.05,0,0,1-1.85-.93,22.42,22.42,0,0,1-1.8-3.17c-.64-1.18-1-1.35-1.72-1.35h-.37Zm0-6.28a5.77,5.77,0,0,0,2-.15,2.46,2.46,0,0,0-1.1-4.61,6.23,6.23,0,0,0-.89.06Z"></path><path class="cls-25" d="M366.38,47.72a4.82,4.82,0,0,1,3,1c0,.52-.33,1.37-1.06,1.33a5.06,5.06,0,0,0-2-.52c-1.09,0-1.88.52-1.88,1.43s.68,1.47,2.61,2.57,2.92,1.84,2.92,3.81c0,2.57-2.24,4-4.68,4a5.36,5.36,0,0,1-3-.8.82.82,0,0,1-.47-.71,2.33,2.33,0,0,1,.5-1.32,5.89,5.89,0,0,0,3,1c1.24,0,2.11-.54,2.11-1.6s-.48-1.43-2.57-2.56C362.36,54,362,52.63,362,51.38c0-1.41,1-3.66,4.41-3.66Z"></path></g></g></svg>