<svg width="160" height="160" viewBox="0 0 160 160" fill="none" xmlns="http://www.w3.org/2000/svg">
  <rect x="6" y="6" width="148" height="148" fill="#FFFFFF" stroke="#111111" stroke-width="5"/>
  <rect x="124" y="24" width="22" height="112" fill="#00843D"/>
  <path d="M24 24H88C84 36 75 45 61 50H24V24Z" fill="#000000"/>
  <path d="M24 50H61L44 136H24V50Z" fill="#D7193F"/>
  <path d="M61 50C49 57 43 69 43 86V136H91V107H66C61 107 58 104 58 99V89C58 81 62 75 70 71C78 67 85 61 91 52V50H61Z" fill="#000000"/>
</svg>
