<svg xmlns="http://www.w3.org/2000/svg" viewBox="0 0 295.07 87.89"><defs><style>.cls-1{fill:#0c8248;}.cls-2{fill:#c21f3b;}</style></defs><title>Asset 1</title><g id="Layer_2" data-name="Layer 2"><g id="Dimensions"><path d="M0,0V87.89H87.89V0ZM85.54,85.54H2.35V2.35H85.54Z"></path><rect class="cls-1" x="62.78" y="9.42" width="15.7" height="69.06"></rect><path d="M47.09,9.42H9.42V25.11h22A28,28,0,0,0,47.09,9.42Z"></path><path class="cls-2" d="M31.39,25.11h-22V78.48H15.7A105.47,105.47,0,0,1,31.39,37.67Z"></path><path d="M44,37.67H31.39A105.47,105.47,0,0,0,15.7,78.48H44Z"></path><path d="M105.37,84.75l-.85-2.46H100l-.86,2.46H97.31l4-11.16h2.08l4,11.16Zm-2.65-7.7a12.22,12.22,0,0,1-.46-1.52h0c-.15.49-.28,1-.46,1.52l-1.34,3.82h3.62Z"></path><path d="M116.8,84.75l-4-6.71a22.32,22.32,0,0,1-1.09-2.2c.07,1.09.12,4.07.12,5.84v3.07h-1.74V73.59h2.4l3.87,6.58a23.66,23.66,0,0,1,1.16,2.23c0-1.25-.12-4.21-.12-6V73.59h1.74V84.75Z"></path><path d="M126.43,84.82c-1.14,0-2.09-.07-3-.08V73.61c.87,0,2.16-.09,3.45-.09,3.53,0,5.7,1.63,5.7,5.49S130.07,84.82,126.43,84.82Zm.35-9.79c-.55,0-1.11,0-1.51,0V83.2a10.63,10.63,0,0,0,1.34.1c2.4,0,4.09-1.29,4.09-4.15C130.7,76.5,129.52,75,126.78,75Z"></path><path d="M143.06,84.92a9.31,9.31,0,0,1-2.5-.3l.21-1.74a6.26,6.26,0,0,0,2.37.47c1.17,0,2.18-.48,2.18-1.71,0-2.34-4.9-1.35-4.9-5,0-1.91,1.46-3.24,4.06-3.24a10.29,10.29,0,0,1,2,.21l-.18,1.59a6.14,6.14,0,0,0-1.92-.32c-1.41,0-2.07.63-2.07,1.57,0,2.22,5,1.41,5,4.93C147.27,83.45,145.6,84.92,143.06,84.92Z"></path><path d="M154,75.11v9.64h-1.81V75.11h-3.07V73.59h8v1.52Z"></path><path d="M165.59,84.75l-.84-2.46h-4.54l-.86,2.46h-1.82l4-11.16h2.09l4,11.16Zm-2.65-7.7a12.22,12.22,0,0,1-.46-1.52h0c-.15.49-.28,1-.46,1.52l-1.34,3.82h3.62Z"></path><path d="M173,75.11v9.64h-1.8V75.11H168.1V73.59h8v1.52Z"></path><path d="M179,84.75V73.59h1.8V84.75Z"></path><path d="M186.87,84.92a9.31,9.31,0,0,1-2.5-.3l.21-1.74a6.26,6.26,0,0,0,2.37.47c1.17,0,2.18-.48,2.18-1.71,0-2.34-4.9-1.35-4.9-5,0-1.91,1.46-3.24,4.06-3.24a10.29,10.29,0,0,1,2,.21l-.18,1.59a6.14,6.14,0,0,0-1.92-.32c-1.41,0-2.07.63-2.07,1.57,0,2.22,5,1.41,5,4.93C191.08,83.45,189.41,84.92,186.87,84.92Z"></path><path d="M197.77,75.11v9.64H196V75.11h-3.07V73.59h8v1.52Z"></path><path d="M203.77,84.75V73.59h1.81V84.75Z"></path><path d="M214.06,84.89c-3.72,0-5.11-2.42-5.11-5.41,0-3.46,1.77-6,5.53-6a8.85,8.85,0,0,1,2.48.35l-.26,1.65a6.78,6.78,0,0,0-2.35-.43c-2.35,0-3.41,1.79-3.41,4.12,0,2.6,1.11,4.08,3.54,4.08a5.82,5.82,0,0,0,2.3-.51l.3,1.57A8.55,8.55,0,0,1,214.06,84.89Z"></path><path d="M222.55,84.92a9.41,9.41,0,0,1-2.5-.3l.22-1.74a6.21,6.21,0,0,0,2.36.47c1.18,0,2.19-.48,2.19-1.71,0-2.34-4.9-1.35-4.9-5,0-1.91,1.46-3.24,4.06-3.24a10.45,10.45,0,0,1,2,.21l-.19,1.59a6,6,0,0,0-1.91-.32c-1.41,0-2.07.63-2.07,1.57,0,2.22,5,1.41,5,4.93C226.77,83.45,225.1,84.92,222.55,84.92Z"></path><path d="M239.64,84.89c-3.72,0-5.11-2.42-5.11-5.41,0-3.46,1.77-6,5.53-6a8.9,8.9,0,0,1,2.48.35l-.27,1.65a6.7,6.7,0,0,0-2.35-.43c-2.35,0-3.4,1.79-3.4,4.12,0,2.6,1.1,4.08,3.54,4.08a5.82,5.82,0,0,0,2.3-.51l.29,1.57A8.49,8.49,0,0,1,239.64,84.89Z"></path><path d="M246,84.75V73.59h5.89v1.49h-4.09v3.19h3.89v1.47h-3.89v3.48h4.09v1.53Z"></path><path d="M262.34,84.75,258.39,78a18.62,18.62,0,0,1-1.09-2.2c.06,1.09.11,4.07.11,5.84v3.07h-1.74V73.59h2.4l3.87,6.58a23.66,23.66,0,0,1,1.16,2.23c-.05-1.25-.11-4.21-.11-6V73.59h1.73V84.75Z"></path><path d="M272.55,75.11v9.64h-1.8V75.11h-3.08V73.59h8v1.52Z"></path><path d="M283.93,84.75l-3.37-4.83h-.2v4.83h-1.8V73.59c.81,0,1.73-.07,3-.07,2.34,0,3.92.81,3.92,3a3.2,3.2,0,0,1-3,3.15c.31.39.66.81.93,1.19l2.84,3.88ZM281.3,75a6.5,6.5,0,0,0-.94,0v3.54c.16,0,.48,0,.88,0,1.45,0,2.33-.75,2.33-1.87S282.79,75,281.3,75Z"></path><path d="M289.18,84.75V73.59h5.89v1.49H291v3.19h3.89v1.47H291v3.48h4.09v1.53Z"></path><path d="M99.11,56.28v3.27h3.8V61h-3.8v4.9h-1.8V54.76h5.82v1.52Z"></path><path d="M105.08,65.92V54.76H111v1.49h-4.08v3.19h3.89v1.47h-3.89v3.47H111v1.54Z"></path><path d="M116.35,66c-1.14,0-2.08-.07-2.95-.09V54.77c.87,0,2.16-.08,3.45-.08,3.52,0,5.69,1.62,5.69,5.49S120,66,116.35,66Zm.35-9.79c-.54,0-1.11,0-1.5,0v8.11a10.63,10.63,0,0,0,1.34.1c2.39,0,4.08-1.29,4.08-4.15C120.62,57.67,119.45,56.2,116.7,56.2Z"></path><path d="M124.57,65.92V54.76h5.89v1.49h-4.09v3.19h3.89v1.47h-3.89v3.47h4.09v1.54Z"></path><path d="M138.26,65.92l-3.37-4.83h-.2v4.83h-1.8V54.76c.81,0,1.73-.07,3-.07,2.33,0,3.92.81,3.92,3a3.19,3.19,0,0,1-3,3.14c.31.4.66.81.92,1.19l2.85,3.89Zm-2.63-9.76a8.33,8.33,0,0,0-.94.05v3.54a8.7,8.7,0,0,0,.87,0c1.46,0,2.34-.74,2.34-1.86S137.12,56.16,135.63,56.16Z"></path><path d="M148.77,65.92l-.84-2.46H143.4l-.86,2.46h-1.82l4-11.16h2.08l4,11.16Zm-2.64-7.71a11.28,11.28,0,0,1-.46-1.52h0c-.15.5-.28,1-.46,1.52L143.85,62h3.62Z"></path><path d="M152.21,65.92V54.76H154v9.6h3.84v1.56Z"></path><path d="M167.5,66.05c-3.72,0-5.1-2.41-5.1-5.41,0-3.45,1.77-6,5.52-6a8.54,8.54,0,0,1,2.48.35l-.27,1.65a6.69,6.69,0,0,0-2.34-.43c-2.35,0-3.41,1.78-3.41,4.12,0,2.59,1.11,4.08,3.54,4.08a5.82,5.82,0,0,0,2.3-.51l.29,1.57A8.45,8.45,0,0,1,167.5,66.05Z"></path><path d="M176.5,66.08c-3.37,0-5-2.19-5-5.58,0-3.73,2.43-5.91,5.36-5.91,3.37,0,5,2.2,5,5.59C181.87,63.9,179.44,66.08,176.5,66.08Zm.18-9.88c-1.82,0-3.27,1.45-3.27,4s1.05,4.21,3.27,4.21c1.82,0,3.27-1.43,3.27-4S178.88,56.2,176.68,56.2Z"></path><path d="M194.5,65.92l-.89-6c-.15-1.1-.27-2.1-.35-2.81h0c-.13.61-.33,1.44-.6,2.3l-2.13,6.5h-1.82l-2-6.07a24.32,24.32,0,0,1-.73-2.73h0c-.07.94-.17,1.94-.3,3l-.71,5.84h-1.82l1.65-11.16h2.17l2.15,6.48c.18.58.44,1.5.62,2.27h0c.2-.82.39-1.56.61-2.2l2.17-6.55h2.18l1.7,11.16Z"></path><path d="M201.1,61.9a9,9,0,0,1-.93,0v4.07h-1.8V54.76s1.51-.07,2.94-.07c2.65,0,4.1,1.26,4.1,3.34S203.84,61.9,201.1,61.9Zm.05-5.72c-.5,0-1,0-1,0v4.11a6.42,6.42,0,0,0,1.06.09,2,2,0,0,0,2.32-2.15C203.55,56.91,202.8,56.18,201.15,56.18Z"></path><path d="M207.22,65.92V54.76h5.88v1.49H209v3.19h3.88v1.47H209v3.47h4.08v1.54Z"></path><path d="M219.35,56.28v9.64h-1.8V56.28h-3.08V54.76h7.95v1.52Z"></path><path d="M224,65.92V54.76h1.8V65.92Z"></path><path d="M232.33,56.28v9.64h-1.8V56.28h-3.08V54.76h8v1.52Z"></path><path d="M237,65.92V54.76h1.8V65.92Z"></path><path d="M246.3,65.92h-2.05l-4-11.16h2l2.35,6.89c.23.63.5,1.49.69,2.22h0a21,21,0,0,1,.73-2.35l2.39-6.76h1.85Z"></path><path d="M251.79,65.92V54.76h5.88v1.49h-4.08v3.19h3.88v1.47h-3.88v3.47h4.08v1.54Z"></path><path d="M266.76,65.92l-3.95-6.71a23.48,23.48,0,0,1-1.09-2.2c.07,1.09.12,4.06.12,5.83v3.08H260.1V54.76h2.4l3.87,6.58a23.48,23.48,0,0,1,1.15,2.23c0-1.26-.11-4.22-.11-6V54.76h1.73V65.92Z"></path><path d="M272.1,65.92V54.76H278v1.49h-4.08v3.19h3.88v1.47h-3.88v3.47H278v1.54Z"></path><path d="M282.49,66.08a9.33,9.33,0,0,1-2.5-.29l.21-1.74a6.5,6.5,0,0,0,2.37.46c1.17,0,2.18-.48,2.18-1.7,0-2.35-4.89-1.36-4.89-5,0-1.9,1.45-3.24,4.05-3.24a9.57,9.57,0,0,1,2,.22l-.18,1.58a6.43,6.43,0,0,0-1.92-.31c-1.41,0-2.07.63-2.07,1.57,0,2.22,5,1.41,5,4.93C286.7,64.61,285,66.08,282.49,66.08Z"></path><path d="M290.85,66.08a9.44,9.44,0,0,1-2.5-.29l.22-1.74a6.4,6.4,0,0,0,2.36.46c1.18,0,2.19-.48,2.19-1.7,0-2.35-4.9-1.36-4.9-5,0-1.9,1.46-3.24,4-3.24a9.57,9.57,0,0,1,2,.22l-.18,1.58a6.33,6.33,0,0,0-1.92-.31c-1.4,0-2.06.63-2.06,1.57,0,2.22,5,1.41,5,4.93C295.07,64.61,293.4,66.08,290.85,66.08Z"></path><rect x="293.08" y="3.14" width="1.98" height="12.71"></rect><path d="M252.89,14.8c0-4.09-1.6-6.07-4.24-7.21l4.69-2.85v-2l-7,4.36V8.6c3,.79,4.51,2.47,4.58,5.68H204.3V7.16h-2V15c0,3.68-2.66,3.63-4.92,3.63v1.77c2.14,0,6.38,0,6.84-4.56h48.63Z"></path><path d="M287.87,14.28h-6.79v-3c0-2.56-1.28-4.09-4-4.09a4.24,4.24,0,0,0-4.58,4.4c0,2.14-.79,2.72-2,2.72H259V7.16h-2V15c0,3.68-2.66,3.63-4.92,3.63v1.77c2.14,0,6.38,0,6.84-4.56h11.95a2.39,2.39,0,0,0,2.58-1.55c.61.92,1.48,1.55,4.11,1.55h12.29V3.14h-2Zm-8.73,0h-1.61c-2.11,0-3-.92-3-2.81A2.44,2.44,0,0,1,277,8.73c1.38,0,2.19.81,2.19,2.79Z"></path><rect x="202.34" y="3.14" width="1.96" height="1.96"></rect><path d="M114.92,7l-.74,1.62c2.67,1.19,3.37,2.85,3.41,5.66h-6.54v1.57h8.49v-1C119.54,10.66,118.47,8.56,114.92,7Z"></path><polygon points="185.83 14.28 180.26 14.28 180.26 15.85 187.81 15.85 187.81 3.14 185.83 3.14 185.83 14.28"></polygon><rect x="191.06" y="3.14" width="1.98" height="12.71"></rect><path d="M174.47,14.28h-9.31v0c0-1.26,0-3.73-1.73-5.45a6.36,6.36,0,0,0-4.74-1.62h-2.27V8.84h2.27c4.65,0,4.65,3.51,4.65,5.28v.16h-39V3.14h-2V15.85h54.07V7.16h-2Z"></path><path d="M112.76,12.3v-.58c0-2.74-1.07-4.56-4.44-4.56a18,18,0,0,0-2.94.27v6.85H104c-3.59,0-4.69-1.3-4.69-3.95a7.46,7.46,0,0,1,.67-3l-2.13.35a8.78,8.78,0,0,0-.52,2.94c0,3.35,1.73,5.28,6.43,5.28h3.56v-7a7.74,7.74,0,0,1,1.09-.1c1.79,0,2.65.86,2.65,3v.53Z"></path><rect x="174.47" y="3.14" width="1.96" height="1.96"></rect><rect x="171.75" y="3.14" width="1.96" height="1.96"></rect><rect x="103.6" y="18.44" width="1.96" height="1.96"></rect><rect x="100.88" y="18.44" width="1.96" height="1.96"></rect><polygon points="184.26 12.78 181.47 3.03 179.5 3.3 182.22 12.78 184.26 12.78"></polygon><rect x="281.43" y="26.71" width="1.96" height="1.96"></rect><rect x="278.71" y="26.71" width="1.96" height="1.96"></rect><rect x="214.86" y="42.01" width="1.96" height="1.96"></rect><rect x="212.13" y="42.01" width="1.96" height="1.96"></rect><rect x="273.85" y="26.71" width="1.96" height="1.96"></rect><rect x="253.04" y="26.71" width="1.96" height="1.96"></rect><rect x="203.16" y="26.71" width="1.96" height="1.96"></rect><rect x="200.44" y="26.71" width="1.96" height="1.96"></rect><polygon points="293.1 26.71 293.1 37.85 288.85 37.85 288.85 26.71 286.88 26.71 286.88 37.85 282.04 37.85 282.04 30.73 280.07 30.73 280.07 37.85 275.82 37.85 275.82 30.73 273.85 30.73 273.85 37.85 263.22 37.85 263.22 26.71 261.24 26.71 261.24 39.42 295.07 39.42 295.07 26.71 293.1 26.71"></polygon><path d="M254.35,30.73a4.26,4.26,0,0,0-4.6,4.4A3.16,3.16,0,0,0,250.94,38a4.12,4.12,0,0,0-1-.11h-6.36a2.75,2.75,0,0,0,.21-1.09v-6H242v6a1,1,0,0,1-1.09,1.09h-2.37a3,3,0,0,0,.19-1.09V31.82H237v4.94a1,1,0,0,1-1.09,1.09h-2.38a3,3,0,0,0,.19-1.09V32.91H232v3.85a1,1,0,0,1-1.09,1.09H215.46V30.73h-2v7.12h-8.17V30.73A7.53,7.53,0,0,0,200,33.26a10.48,10.48,0,0,0-2.56,6.16h1.88a15.59,15.59,0,0,1,.51-2.13,7.51,7.51,0,0,1,.76-1.65,5.75,5.75,0,0,1,2.43-2.5,2.89,2.89,0,0,0,.47-.16v6.44H230.9a2.76,2.76,0,0,0,2.4-1.14v1.14h2.62a2.78,2.78,0,0,0,2.4-1.14v1.14h2.61A3.1,3.1,0,0,0,242.5,39v.39h15.8v-4.6C258.3,32.26,257,30.73,254.35,30.73Zm2,7.12h-1.61c-2.12,0-3-.92-3-2.81a2.44,2.44,0,0,1,2.45-2.74c1.37,0,2.18.81,2.18,2.79Z"></path><rect x="178.04" y="26.71" width="1.98" height="12.71"></rect><path d="M100.43,36.46c0-.72.54-1.24,1.58-1.24a7.78,7.78,0,0,1,1.48.16l.24-1.59a13.6,13.6,0,0,0-1.57-.12c-2.69,0-3.72,1.46-3.72,2.88a1.49,1.49,0,0,0,.8,1.43,12.24,12.24,0,0,0-1.93-.13v1.57h7V37.85h-1.62C101,37.85,100.43,37.27,100.43,36.46Z"></path><path d="M169.87,42.27c0-.33.29-.56.83-.56a3.75,3.75,0,0,1,.91.1l.19-1.11a3.8,3.8,0,0,0-1-.11c-1.55,0-2.31.77-2.31,1.66a.75.75,0,0,0,.37.7,6,6,0,0,0-1-.09V44h4.32V42.86h-1.1C170.22,42.86,169.87,42.64,169.87,42.27Z"></path><polygon points="172.81 37.85 167.24 37.85 167.24 39.42 174.8 39.42 174.8 26.71 172.81 26.71 172.81 37.85"></polygon><path d="M157.52,30.73h-2.28v1.68h2.28c4.64,0,4.64,3.51,4.65,5.28v.16H148.61v-.36c0-4.4-1.61-6.76-4.77-6.76-2.07,0-4.2,1.53-5.62,3.77V32.41H136.4v3c0,1.47-.4,2.13-.82,2.43H108.7V26.71h-2V39.42H164V37.8c0-1.26,0-3.73-1.73-5.45A6.33,6.33,0,0,0,157.52,30.73Zm-10.78,7.12h-8.66c1-2.88,3.57-5.44,5.66-5.44,1.87,0,3,1.93,3,4.78C146.76,37.4,146.76,37.62,146.74,37.85Z"></path><path d="M187.34,30.73a4.27,4.27,0,0,0-4.63,4.49c0,2.57,1.3,4.2,4.78,4.2h1.64v.36c0,1.91-1.39,2.63-3.3,2.63a14.55,14.55,0,0,1-2.85-.34l-.14,1.64a17.24,17.24,0,0,0,2.79.27c3.93,0,5.43-2.08,5.43-4.35V31.36A11.48,11.48,0,0,0,187.34,30.73Zm1.79,7.12h-1.41c-2.13,0-3-1-3-2.81a2.43,2.43,0,0,1,2.43-2.74,5,5,0,0,1,2,.38Z"></path><polygon points="171.25 36.35 168.45 26.6 166.49 26.87 169.21 36.35 171.25 36.35"></polygon></g></g></svg>